<?xml version="1.0" encoding="UTF-8"?>
<svg version="1.1" xmlns="http://www.w3.org/2000/svg" width="500" height="500">
<path d="M0 0 C0.99 0 1.98 0 3 0 C3.350625 1.051875 3.70125 2.10375 4.0625 3.1875 C5.95485851 7.70711352 8.91367148 9.45568224 13 12 C10.53721199 14.46278801 8.29323018 14.99771255 5 16 C5.1808358 18.42946892 5.1808358 18.42946892 6 21 C7.81692952 22.43056277 7.81692952 22.43056277 10.125 23.375 C18.51615261 27.65728933 23.59314872 33.82790624 26.58203125 42.734375 C28.62754046 53.82218195 27.81013854 65.7598692 21.4921875 75.26953125 C17.47898478 80.3000342 12.81567614 83.34903808 7 86 C6.26394531 86.36609375 5.52789062 86.7321875 4.76953125 87.109375 C-3.65505883 89.81855206 -15.84006522 89.35825362 -23.76171875 85.4453125 C-33.12490586 79.39927545 -38.31666936 72.67726401 -41.6015625 62.0546875 C-43.56633309 51.92263525 -41.78121321 42.61999638 -36.71484375 33.75 C-31.3598606 25.87414734 -23.24156791 21.0005979 -14 19 C-10.33793601 18.51552461 -6.68799211 18.19990985 -3 18 C-5.48952921 15.33264727 -7.63408134 13.44253657 -11 12 C-10 10 -10 10 -7.125 8.625 C-2.90394516 6.43005148 -1.48472718 4.45418155 0 0 Z M-24.75 35.1875 C-30.90459326 42.88074157 -31.99853787 50.27350147 -31 60 C-29.79547363 66.02263185 -26.73177368 71.0734231 -22 75 C-14.82638375 79.13580937 -7.95738801 80.11288302 0.0625 78.3125 C6.81247434 75.29655402 11.71387529 72.49232289 15.09375 65.6640625 C17.61425961 58.25463339 17.96611118 50.26697239 15 43 C14.608125 41.989375 14.21625 40.97875 13.8125 39.9375 C10.50725646 34.58072599 6.02669577 30.90133094 0 29 C-10.06054212 27.96630033 -16.89609306 28.94007402 -24.75 35.1875 Z " fill="#3C65E4" transform="translate(464,207)"/>
<path d="M0 0 C6.22555982 -0.07461488 12.45085456 -0.1288209 18.67675781 -0.16479492 C20.7910618 -0.17980487 22.90533507 -0.2002192 25.01953125 -0.22631836 C28.07299421 -0.26304633 31.12604257 -0.27980474 34.1796875 -0.29296875 C35.57874832 -0.31619453 35.57874832 -0.31619453 37.006073 -0.33988953 C47.22083088 -0.34246079 55.38372025 2.07164229 63 9 C63.56847656 9.51433594 64.13695313 10.02867187 64.72265625 10.55859375 C70.16343648 16.13305409 71.5646833 22.93704415 72.375 30.5 C71.4503886 39.12970636 69.40651743 46.84974327 63 53 C51.91997817 61.42005113 40.30941731 62.47305535 26.875 62.6875 C25.4270539 62.72074697 23.97913591 62.75524317 22.53125 62.79101562 C19.02103994 62.87506349 15.51075308 62.94226365 12 63 C12.00523682 63.78238037 12.01047363 64.56476074 12.01586914 65.37084961 C12.03657106 68.89305833 12.04963838 72.4152543 12.0625 75.9375 C12.07087891 77.16919922 12.07925781 78.40089844 12.08789062 79.66992188 C12.09111328 80.83974609 12.09433594 82.00957031 12.09765625 83.21484375 C12.10289307 84.29886475 12.10812988 85.38288574 12.11352539 86.49975586 C12 89 12 89 11 90 C9.33570949 90.09823937 7.66718069 90.12973631 6 90.125 C4.63875 90.12886719 4.63875 90.12886719 3.25 90.1328125 C1 90 1 90 0 89 C-0.10095564 86.34543807 -0.13970998 83.71744824 -0.1328125 81.0625 C-0.13376923 80.267229 -0.13472595 79.47195801 -0.13571167 78.65258789 C-0.13639343 76.9679354 -0.13453943 75.28328029 -0.13037109 73.59863281 C-0.12502275 71.01100803 -0.13031619 68.42355684 -0.13671875 65.8359375 C-0.13605797 64.20312461 -0.1347768 62.57031184 -0.1328125 60.9375 C-0.13483673 60.15834229 -0.13686096 59.37918457 -0.13894653 58.57641602 C-0.11495105 53.11495105 -0.11495105 53.11495105 1 52 C3.77738636 51.86422431 6.53330056 51.78929843 9.3125 51.75390625 C11.04557726 51.72093065 12.77865006 51.68771971 14.51171875 51.65429688 C17.24556978 51.60714466 19.97940781 51.5627983 22.71337891 51.52319336 C25.35079373 51.48308698 27.98781061 51.43159945 30.625 51.37890625 C31.42848877 51.3704921 32.23197754 51.36207794 33.05981445 51.35340881 C40.98688019 51.18360331 48.86081198 50.42532895 55 45 C59.91688754 38.7964503 59.80274723 31.59141209 59 24 C57.31624283 18.76164435 54.42867803 16.18864818 50 13 C43.55470733 9.69472171 36.33393368 9.8612465 29.2578125 9.9375 C28.44883514 9.94128662 27.63985779 9.94507324 26.80636597 9.94897461 C24.24585414 9.96110519 21.68545971 9.9797554 19.125 10 C15.73177429 10.02649972 12.33860205 10.04650335 8.9453125 10.0625 C7.77199875 10.07494751 7.77199875 10.07494751 6.57498169 10.08764648 C4.71644448 10.09619568 2.85779023 10.05337711 1 10 C0 9 0 9 -0.09765625 6.93359375 C-0.08605469 6.10988281 -0.07445312 5.28617188 -0.0625 4.4375 C-0.05347656 3.61121094 -0.04445313 2.78492188 -0.03515625 1.93359375 C-0.02355469 1.29550781 -0.01195312 0.65742188 0 0 Z " fill="#14BEC7" transform="translate(9,205)"/>
<path d="M0 0 C7.78946416 6.36884467 11.94598574 15.12393116 12.96875 25.0390625 C13.33049185 35.74059214 10.20182963 45.29351074 2.9375 53.22265625 C-5.30696472 61.05157336 -13.61585586 62.91946979 -24.69433594 62.78320312 C-34.01291029 62.41593017 -40.73260419 59.6682706 -47.55859375 53.2421875 C-54.70420724 45.3804212 -57.71429616 36.34959216 -57.51953125 25.796875 C-56.68676731 15.80370772 -52.83060731 7.08546143 -45.171875 0.4609375 C-31.31433361 -9.37500971 -14.13748843 -9.59425018 0 0 Z M-40.6875 10.8125 C-45.8806477 17.19513963 -46.79750297 23.93127655 -46.06640625 32.04296875 C-44.73314954 39.84193054 -41.34264261 45.06887933 -35.234375 50.0546875 C-30.19687487 53.35158799 -24.19661241 53.82865021 -18.3125 53.3125 C-11.31412455 51.65658042 -6.50160397 49.25215391 -2.125 43.375 C2.47046969 35.61024087 3.11166967 27.468879 1.0703125 18.64453125 C-1.48547164 12.07413043 -6.37028726 7.29022082 -12.640625 4.14453125 C-23.08755058 0.89132197 -33.40536862 2.71156437 -40.6875 10.8125 Z " fill="#0EC0C8" transform="translate(147.3125,232.6875)"/>
<path d="M0 0 C6.20722892 -0.09959145 12.41398288 -0.17180805 18.62182617 -0.21972656 C20.72933057 -0.23972278 22.83678034 -0.26692893 24.9440918 -0.30175781 C51.16465425 -0.7239691 51.16465425 -0.7239691 62.28125 8.296875 C68.32813425 14.28878758 71.27069281 21.78025612 71.375 30.25 C71.19694088 39.45670367 68.3868838 46.5300964 62.05078125 53.24609375 C51.53448879 62.24002768 39.0475369 62.28191388 26 62.125 C24.54297489 62.11495155 23.08594309 62.10582899 21.62890625 62.09765625 C18.08579671 62.07578711 14.54294188 62.04135977 11 62 C11.00523682 62.81267334 11.01047363 63.62534668 11.01586914 64.46264648 C11.03656994 68.12092322 11.04963803 71.77918767 11.0625 75.4375 C11.07087891 76.71689453 11.07925781 77.99628906 11.08789062 79.31445312 C11.09111328 80.52939453 11.09433594 81.74433594 11.09765625 82.99609375 C11.10289307 84.12200928 11.10812988 85.2479248 11.11352539 86.40795898 C11 89 11 89 10 90 C8.31391034 90.07205511 6.62499341 90.08386068 4.9375 90.0625 C3.55884766 90.04896484 3.55884766 90.04896484 2.15234375 90.03515625 C1.44207031 90.02355469 0.73179687 90.01195312 0 90 C-0.16723026 84.74912156 -0.32782815 79.49809906 -0.48217773 74.24682617 C-0.53567402 72.45900968 -0.59100904 70.67124725 -0.64819336 68.88354492 C-0.72989235 66.31961734 -0.80505945 63.75557047 -0.87890625 61.19140625 C-0.90594131 60.3872377 -0.93297638 59.58306915 -0.96083069 58.75453186 C-1.01285627 56.83701578 -1.01187441 54.91818497 -1 53 C1.08488137 50.91511863 5.61513694 51.81415116 8.49609375 51.7890625 C10.27019097 51.76095926 12.04427937 51.73229464 13.81835938 51.703125 C16.6157982 51.66211185 19.41307846 51.6252322 22.21069336 51.59863281 C38.58002366 51.88340048 38.58002366 51.88340048 53.4375 45.875 C57.57662051 41.2311087 58.78477917 36.49656166 59.3125 30.375 C58.74066453 24.19917697 57.52010857 19.40115834 53 15 C45.36099576 9.9582572 37.0060521 9.8768449 28.125 9.68359375 C26.91009888 9.6524221 26.91009888 9.6524221 25.6706543 9.62062073 C23.11384576 9.55586344 20.55694519 9.49658806 18 9.4375 C16.25389719 9.39424434 14.50780328 9.35062796 12.76171875 9.30664062 C8.50790391 9.20025917 4.25399764 9.09878982 0 9 C-1.15941038 5.52176885 -0.70820884 3.54104422 0 0 Z " fill="#347CD4" transform="translate(293,205)"/>
<path d="M0 0 C-0.55728913 3.34373475 -1.35173889 6.03312999 -3 9 C-5.63038319 8.47392336 -7.62666129 7.69306386 -10.0625 6.5 C-17.89335453 3.10328318 -26.9930678 3.26665023 -35 6 C-37.73637301 7.48292843 -37.73637301 7.48292843 -39 10 C-39.58342353 13.54230809 -39.58342353 13.54230809 -39 17 C-35.11303042 21.84125553 -28.53130299 22.72139304 -22.72265625 23.8671875 C-3.97104159 27.58494328 -3.97104159 27.58494328 2.0625 35.8125 C3.64875384 41.20576307 3.71988013 45.84035962 1.9375 51.1875 C-2.37118684 57.44204542 -7.60219849 61.05869931 -15 63 C-18.42804987 63.42630212 -21.79846467 63.47606639 -25.25 63.4375 C-26.63445312 63.42940308 -26.63445312 63.42940308 -28.046875 63.42114258 C-37.47555297 63.21174515 -44.9964022 60.98795649 -53 56 C-52.44271087 52.65626525 -51.64826111 49.96687001 -50 47 C-45.68800692 47.5563862 -42.15973544 49.20519711 -38.28125 51.0625 C-28.87905528 54.92641564 -18.18133977 53.73478228 -9 50 C-8.91868537 48.56344146 -8.86066441 47.1255517 -8.8125 45.6875 C-8.77769531 44.88699219 -8.74289063 44.08648437 -8.70703125 43.26171875 C-8.81992411 40.95652455 -8.81992411 40.95652455 -10.25390625 39.296875 C-12.21673942 37.83902128 -13.77156388 37.22261013 -16.125 36.5625 C-17.00027344 36.315 -17.87554687 36.0675 -18.77734375 35.8125 C-21.24478493 35.19040574 -23.70748427 34.61113731 -26.19140625 34.0625 C-26.93181152 33.8967749 -27.6722168 33.7310498 -28.43505859 33.56030273 C-29.90295755 33.23588847 -31.37331404 32.92234325 -32.84619141 32.62133789 C-40.05001497 31.04158137 -45.77483954 28.33774069 -50 22 C-51.61021592 17.16935225 -51.95802887 11.8521888 -50.31640625 6.96484375 C-47.13146886 0.95178769 -42.7740379 -2.60115877 -36.5 -4.8125 C-24.45499475 -7.97747886 -10.55971114 -6.81702871 0 0 Z " fill="#0AC0C8" transform="translate(221,232)"/>
<path d="M0 0 C2.57161458 0.03255208 5.14322917 0.06510417 7.71484375 0.09765625 C8.20984375 7.02765625 8.20984375 7.02765625 8.71484375 14.09765625 C15.31484375 14.42765625 21.91484375 14.75765625 28.71484375 15.09765625 C28.71484375 17.73765625 28.71484375 20.37765625 28.71484375 23.09765625 C27.71484375 24.09765625 27.71484375 24.09765625 25.76538086 24.21118164 C24.93272705 24.20594482 24.10007324 24.20070801 23.2421875 24.1953125 C22.34306641 24.19208984 21.44394531 24.18886719 20.51757812 24.18554688 C19.57205078 24.17716797 18.62652344 24.16878906 17.65234375 24.16015625 C16.70294922 24.15564453 15.75355469 24.15113281 14.77539062 24.14648438 C12.4218131 24.13465735 10.06835898 24.1181765 7.71484375 24.09765625 C7.87476807 24.90178955 8.03469238 25.70592285 8.19946289 26.53442383 C8.80917932 30.74987213 8.90631239 34.85644237 8.9609375 39.109375 C8.99384436 40.85352124 9.02705648 42.59766174 9.06054688 44.34179688 C9.10811596 47.07393864 9.15264208 49.80605206 9.19165039 52.53833008 C9.23127842 55.1872387 9.28280452 57.83570772 9.3359375 60.484375 C9.34435165 61.30314621 9.35276581 62.12191742 9.36143494 62.96549988 C9.44611929 66.83902123 9.51848983 68.80312537 11.71484375 72.09765625 C17.8027208 74.1269486 23.8075208 73.52117336 29.71484375 71.09765625 C31.5726114 74.23263917 31.91624851 76.47237057 31.71484375 80.09765625 C27.0398423 82.84722809 23.11953457 83.61434637 17.77734375 83.53515625 C17.06803711 83.52758301 16.35873047 83.52000977 15.62792969 83.51220703 C10.06634532 83.33607734 6.91100458 82.72161333 2.71484375 79.09765625 C-5.74457191 69.72370917 -3.52630961 54.17999828 -3.41015625 42.41015625 C-3.40010464 40.62956233 -3.39098265 38.84896292 -3.3828125 37.06835938 C-3.36097573 32.74465366 -3.32656662 28.42121699 -3.28515625 24.09765625 C-6.91515625 24.09765625 -10.54515625 24.09765625 -14.28515625 24.09765625 C-14.28515625 21.12765625 -14.28515625 18.15765625 -14.28515625 15.09765625 C-13.57488281 15.04867187 -12.86460937 14.9996875 -12.1328125 14.94921875 C-10.75416016 14.83707031 -10.75416016 14.83707031 -9.34765625 14.72265625 C-8.43113281 14.65304688 -7.51460937 14.5834375 -6.5703125 14.51171875 C-5.43916016 14.30675781 -5.43916016 14.30675781 -4.28515625 14.09765625 C-2.9660794 11.45950255 -3.22383219 9.47487838 -3.28515625 6.53515625 C-3.3228594 4.72304844 -3.33168986 2.90955881 -3.28515625 1.09765625 C-2.28515625 0.09765625 -2.28515625 0.09765625 0 0 Z " fill="#14A8D8" transform="translate(243.28515625,211.90234375)"/>
<path d="M0 0 C1 1 1 1 1.09765625 3.06640625 C1.08605469 3.89011719 1.07445312 4.71382812 1.0625 5.5625 C1.05347656 6.38878906 1.04445313 7.21507812 1.03515625 8.06640625 C1.02355469 8.70449219 1.01195312 9.34257812 1 10 C0.27554688 10.10957031 -0.44890625 10.21914062 -1.1953125 10.33203125 C-8.26448285 11.49137519 -13.535111 12.535111 -18.75 17.75 C-23.06367653 23.9808661 -23.31578689 30.32969686 -23.4140625 37.65234375 C-23.43342865 38.55247696 -23.4527948 39.45261017 -23.4727478 40.38002014 C-23.53214471 43.23241945 -23.57876831 46.08486001 -23.625 48.9375 C-23.66321655 50.88087619 -23.70227038 52.82423612 -23.7421875 54.76757812 C-23.83781312 59.51158533 -23.92199019 64.25567175 -24 69 C-27.63 69 -31.26 69 -35 69 C-35 46.56 -35 24.12 -35 1 C-31.7 1 -28.4 1 -25 1 C-24.67 3.97 -24.34 6.94 -24 10 C-23.5153125 9.52949219 -23.030625 9.05898437 -22.53125 8.57421875 C-15.46534432 2.01107944 -9.6846768 -0.67962644 0 0 Z " fill="#3B69D8" transform="translate(414,226)"/>
<path d="M0 0 C3 1 3 1 6 3 C7.09765625 5.34765625 7.09765625 5.34765625 8.0625 8.0625 C9.14705065 11.7867184 9.14705065 11.7867184 12 14 C12.50755692 26.02627933 12.69947325 36.48877074 4.8125 46.375 C1.0922837 50.279227 -3.12040972 52.77573447 -8 55 C-8.73605469 55.36609375 -9.47210938 55.7321875 -10.23046875 56.109375 C-18.74969523 58.84898521 -30.77425026 58.27835988 -38.80859375 54.421875 C-42.94681807 51.73682393 -46.51153154 48.47161595 -50 45 C-47.04335481 43.5216774 -44.25770263 43.93967217 -41 44 C-40.67 43.34 -40.34 42.68 -40 42 C-40.66 42 -41.32 42 -42 42 C-42.66 40.02 -43.32 38.04 -44 36 C-44.66 36 -45.32 36 -46 36 C-48.39996046 29.55010625 -48.83003682 22.8277222 -48 16 C-46.48046875 13.60546875 -46.48046875 13.60546875 -45 12 C-45.03480469 13.134375 -45.06960938 14.26875 -45.10546875 15.4375 C-45.53256701 29.57270434 -45.53256701 29.57270434 -38.63671875 41.6796875 C-33.31755178 45.97056682 -26.75395817 47.61205043 -20.0234375 47.2578125 C-13.86137372 46.47268468 -7.5427494 44.01992346 -3.48046875 39.1953125 C0.76085593 32.52164312 1.97547675 24.5277016 0.6015625 16.7421875 C0.42367187 16.10539062 0.24578125 15.46859375 0.0625 14.8125 C-1.23360207 10.16178079 -1.40271099 5.8044358 -1 1 C-0.67 0.67 -0.34 0.34 0 0 Z " fill="#5646DD" transform="translate(479,238)"/>
<path d="M0 0 C0.99 0.495 0.99 0.495 2 1 C5.54060527 11.6218158 4.79105431 22.07325008 -0.03125 32.15625 C-4.29406844 39.6449851 -10.74738174 45.42514734 -18.8984375 48.33984375 C-29.01615588 50.49336315 -41.03118654 50.64086783 -50 45 C-57.97480155 39.40489056 -63.45405903 31.80214029 -65.625 22.25 C-66.22242894 17.07228253 -66.66162612 11.98487837 -65 7 C-64.34 7 -63.68 7 -63 7 C-63 13.27 -63 19.54 -63 26 C-62.01 25.34 -61.02 24.68 -60 24 C-60.33 23.34 -60.66 22.68 -61 22 C-59.68 21.67 -58.36 21.34 -57 21 C-56.505 16.545 -56.505 16.545 -56 12 C-54.30169208 15.39661585 -53.67450567 17.27517712 -53.125 20.875 C-51.71860541 28.24234396 -48.16100921 32.73468593 -42 37 C-34.64790667 39.88992671 -27.45164045 39.64285336 -20.078125 36.984375 C-17.02961819 35.54034546 -15.13651294 33.57638325 -13 31 C-12.443125 30.34 -11.88625 29.68 -11.3125 29 C-8.39216906 24.5499719 -7.69429793 20.45591587 -7.375 15.1875 C-7.30023438 14.02605469 -7.22546875 12.86460937 -7.1484375 11.66796875 C-7.09945312 10.78753906 -7.05046875 9.90710938 -7 9 C-6.67 9 -6.34 9 -6 9 C-5.85304688 10.15628906 -5.85304688 10.15628906 -5.703125 11.3359375 C-5.55359375 12.33882813 -5.4040625 13.34171875 -5.25 14.375 C-5.11078125 15.37273437 -4.9715625 16.37046875 -4.828125 17.3984375 C-4.25613111 20.14561047 -4.25613111 20.14561047 -1.921875 21.3515625 C-1.28765625 21.56554687 -0.6534375 21.77953125 0 22 C2.08080899 14.94836952 1.27136547 7.15143075 0 0 Z " fill="#0EB9CA" transform="translate(156,246)"/>
<path d="M0 0 C8.26578623 0.81119391 14.75157772 2.28598226 21 8 C24.43889089 12.68939667 24.7201751 17.37046222 24 23 C22.20944716 28.37165852 18.7319849 32.01005556 14 35 C7.77913759 37.85038429 2.55375652 38.51352308 -4.25 38.4375 C-5.63445312 38.42940308 -5.63445312 38.42940308 -7.046875 38.42114258 C-16.47555297 38.21174515 -23.9964022 35.98795649 -32 31 C-31.44271087 27.65626525 -30.64826111 24.96687001 -29 22 C-24.68800692 22.5563862 -21.15973544 24.20519711 -17.28125 26.0625 C-7.87905528 29.92641564 2.81866023 28.73478228 12 25 C12.08131463 23.56344146 12.13933559 22.1255517 12.1875 20.6875 C12.22230469 19.88699219 12.25710937 19.08648437 12.29296875 18.26171875 C12.18007589 15.95652455 12.18007589 15.95652455 10.74609375 14.296875 C3.41007447 8.84819849 -9.17611917 8.01659458 -18 6 C-10.90038373 3.78864411 -2.88444146 5.70518618 4 8 C3.48967606 4.22360282 2.79233071 2.55277419 0 0 Z " fill="#1C9DD0" transform="translate(200,257)"/>
<path d="M0 0 C2.57161458 0.03255208 5.14322917 0.06510417 7.71484375 0.09765625 C8.20984375 7.02765625 8.20984375 7.02765625 8.71484375 14.09765625 C14.32484375 14.42765625 19.93484375 14.75765625 25.71484375 15.09765625 C26.71484375 20.09765625 26.71484375 20.09765625 25.54174805 21.8918457 C23.3224486 23.35664859 22.12656023 23.44684171 19.484375 23.390625 C18.68193359 23.38095703 17.87949219 23.37128906 17.05273438 23.36132812 C15.80266602 23.32362305 15.80266602 23.32362305 14.52734375 23.28515625 C13.25987305 23.26485352 13.25987305 23.26485352 11.96679688 23.24414062 C9.88253991 23.20881424 7.79861098 23.15500764 5.71484375 23.09765625 C5.71484375 24.74765625 5.71484375 26.39765625 5.71484375 28.09765625 C2.74484375 27.43765625 -0.22515625 26.77765625 -3.28515625 26.09765625 C-3.28515625 25.43765625 -3.28515625 24.77765625 -3.28515625 24.09765625 C-6.91515625 24.09765625 -10.54515625 24.09765625 -14.28515625 24.09765625 C-14.28515625 21.12765625 -14.28515625 18.15765625 -14.28515625 15.09765625 C-13.57488281 15.04867187 -12.86460937 14.9996875 -12.1328125 14.94921875 C-10.75416016 14.83707031 -10.75416016 14.83707031 -9.34765625 14.72265625 C-8.43113281 14.65304688 -7.51460937 14.5834375 -6.5703125 14.51171875 C-5.43916016 14.30675781 -5.43916016 14.30675781 -4.28515625 14.09765625 C-2.9660794 11.45950255 -3.22383219 9.47487838 -3.28515625 6.53515625 C-3.3228594 4.72304844 -3.33168986 2.90955881 -3.28515625 1.09765625 C-2.28515625 0.09765625 -2.28515625 0.09765625 0 0 Z " fill="#10B3CF" transform="translate(243.28515625,211.90234375)"/>
<path d="M0 0 C0.66 0 1.32 0 2 0 C2.43699219 1.21236328 2.43699219 1.21236328 2.8828125 2.44921875 C6.51200702 11.91023215 9.6457341 15.76830828 19 20 C17.67432122 22.65135755 16.47649732 22.75169392 13.75 23.8125 C6.3214229 27.02644857 3.18547905 31.82822314 0 39 C-0.66 39 -1.32 39 -2 39 C-2.29132813 38.18015625 -2.58265625 37.3603125 -2.8828125 36.515625 C-5.96728678 28.1310267 -5.96728678 28.1310267 -13 23 C-14.11375 22.4225 -15.2275 21.845 -16.375 21.25 C-17.24125 20.8375 -18.1075 20.425 -19 20 C-19 19.34 -19 18.68 -19 18 C-18.34773438 17.79246094 -17.69546875 17.58492187 -17.0234375 17.37109375 C-9.83330571 14.83651927 -5.48023601 11.84730536 -1.97265625 4.9921875 C-1.25304939 3.35400414 -0.61697073 1.67953144 0 0 Z " fill="#FBDE62" transform="translate(440,179)"/>
<path d="M0 0 C2.23167185 -0.36856864 2.23167185 -0.36856864 4 -1 C4.495 1.475 4.495 1.475 5 4 C1.24105464 6.45777197 -2.49953546 6.25710815 -6.828125 6.1953125 C-7.57713074 6.1924826 -8.32613647 6.18965271 -9.09783936 6.18673706 C-11.48205776 6.1755726 -13.86589579 6.15047531 -16.25 6.125 C-17.86978623 6.11496535 -19.48957836 6.10584035 -21.109375 6.09765625 C-25.07306246 6.07564555 -29.03646681 6.04114175 -33 6 C-33 6.66 -33 7.32 -33 8 C-33.66 8 -34.32 8 -35 8 C-35 16.58 -35 25.16 -35 34 C-37.31 34 -39.62 34 -42 34 C-43 33 -43 33 -43.11352539 29.85717773 C-43.11336633 28.46597303 -43.10767506 27.07476239 -43.09765625 25.68359375 C-43.0962413 24.95253922 -43.09482635 24.22148468 -43.09336853 23.46827698 C-43.08775408 21.12464368 -43.07519922 18.78110461 -43.0625 16.4375 C-43.05748686 14.85221492 -43.05292363 13.26692834 -43.04882812 11.68164062 C-43.03777997 7.7877239 -43.02050572 3.89387795 -43 0 C-37.67996536 -0.16802516 -32.35977627 -0.32854056 -27.03930664 -0.48217773 C-25.23032575 -0.53546404 -23.42140351 -0.59078238 -21.61254883 -0.64819336 C-19.0087549 -0.73047869 -16.40483582 -0.80539339 -13.80078125 -0.87890625 C-12.99538406 -0.90594131 -12.18998688 -0.93297638 -11.36018372 -0.96083069 C-7.38424049 -1.06590766 -3.89991313 -0.89417521 0 0 Z " fill="#02C2CB" transform="translate(54,259)"/>
<path d="M0 0 C0.99 0 1.98 0 3 0 C3.350625 1.051875 3.70125 2.10375 4.0625 3.1875 C5.95485851 7.70711352 8.91367148 9.45568224 13 12 C10.53721199 14.46278801 8.29323018 14.99771255 5 16 C5.1808358 18.42946892 5.1808358 18.42946892 6 21 C7.81692952 22.43056277 7.81692952 22.43056277 10.125 23.375 C17.32578117 27.04980247 21.83881527 31.91878347 25.46875 39.10546875 C26.11490025 41.40975457 25.75480791 42.76040548 25 45 C24.71125 44.401875 24.4225 43.80375 24.125 43.1875 C22.95257974 40.80672208 22.95257974 40.80672208 21 38 C21 36.68 21 35.36 21 34 C20.38125 33.855625 19.7625 33.71125 19.125 33.5625 C17 33 17 33 15 32 C15 35.3 15 38.6 15 42 C14.46375 41.278125 13.9275 40.55625 13.375 39.8125 C8.54019438 34.08707229 3.95851852 30.46160942 -3.55078125 29.5859375 C-4.79214844 29.51632813 -6.03351563 29.44671875 -7.3125 29.375 C-8.56675781 29.30023438 -9.82101562 29.22546875 -11.11328125 29.1484375 C-12.06589844 29.09945312 -13.01851563 29.05046875 -14 29 C-14 28.67 -14 28.34 -14 28 C-11.22964291 27.77837143 -8.45961005 27.57220751 -5.6875 27.375 C-4.90181641 27.31054688 -4.11613281 27.24609375 -3.30664062 27.1796875 C-2.54931641 27.128125 -1.79199219 27.0765625 -1.01171875 27.0234375 C-0.31522217 26.97106934 0.38127441 26.91870117 1.09887695 26.86474609 C3 27 3 27 6 29 C6 28.34 6 27.68 6 27 C5.34 26.67 4.68 26.34 4 26 C4.33 25.34 4.66 24.68 5 24 C4.113125 24.04125 3.22625 24.0825 2.3125 24.125 C-0.98993722 24.00037973 -2.99524735 23.25198027 -6 22 C-6.66 22.33 -7.32 22.66 -8 23 C-8.598125 22.835 -9.19625 22.67 -9.8125 22.5 C-12.47942781 21.8904165 -14.34975923 22.44205458 -17 23 C-17.66 22.67 -18.32 22.34 -19 22 C-19 22.66 -19 23.32 -19 24 C-21.31 24.33 -23.62 24.66 -26 25 C-20.70940673 19.08114878 -12.59804723 18.63854651 -5.08984375 18.11328125 C-4.05537109 18.05720703 -4.05537109 18.05720703 -3 18 C-5.48952921 15.33264727 -7.63408134 13.44253657 -11 12 C-10 10 -10 10 -7.125 8.625 C-2.90394516 6.43005148 -1.48472718 4.45418155 0 0 Z " fill="#445ED6" transform="translate(464,207)"/>
<path d="M0 0 C6.20722892 -0.09959145 12.41398288 -0.17180805 18.62182617 -0.21972656 C20.72933057 -0.23972278 22.83678034 -0.26692893 24.9440918 -0.30175781 C38.76740339 -0.52434488 50.53496822 -0.67624026 62 8 C57.82412255 9.39195915 55.86525224 7.82323219 52 6 C52 5.34 52 4.68 52 4 C49.69 3.34 47.38 2.68 45 2 C45 2.99 45 3.98 45 5 C45.78375 5.12375 46.5675 5.2475 47.375 5.375 C50 6 50 6 52 8 C51.34 9.32 50.68 10.64 50 12 C49.28561768 11.86287598 48.57123535 11.72575195 47.83520508 11.58447266 C37.78444425 9.83208058 27.86640542 9.56406354 17.6875 9.375 C15.96417527 9.33671471 14.24086751 9.29765734 12.51757812 9.2578125 C8.34519387 9.16299199 4.17272086 9.07855585 0 9 C-1.15941038 5.52176885 -0.70820884 3.54104422 0 0 Z " fill="#1F9ECE" transform="translate(293,205)"/>
<path d="M0 0 C0 0.66 0 1.32 0 2 C-2.64738916 3.4606285 -3.89448334 4 -7 4 C-7 4.99 -7 5.98 -7 7 C-15.58 7 -24.16 7 -33 7 C-33.83538281 13.58731828 -33.83538281 13.58731828 -34.31640625 20.15625 C-34.35830078 21.0328125 -34.40019531 21.909375 -34.44335938 22.8125 C-34.48267578 23.699375 -34.52199219 24.58625 -34.5625 25.5 C-34.62727539 26.87671875 -34.62727539 26.87671875 -34.69335938 28.28125 C-34.79833456 30.52072061 -34.90049248 32.76028092 -35 35 C-35.66 35 -36.32 35 -37 35 C-37 34.34 -37 33.68 -37 33 C-37.66 32.67 -38.32 32.34 -39 32 C-39.99 31.34 -40.98 30.68 -42 30 C-42.35644531 27.43383789 -42.35644531 27.43383789 -42.328125 24.22265625 C-42.32296875 23.06958984 -42.3178125 21.91652344 -42.3125 20.72851562 C-42.291875 19.51873047 -42.27125 18.30894531 -42.25 17.0625 C-42.24484375 15.85658203 -42.2396875 14.65066406 -42.234375 13.40820312 C-42.15446608 4.46339824 -42.15446608 4.46339824 -41 1 C-35.9646246 0.85668752 -30.92922423 0.71429852 -25.89379883 0.57275391 C-24.18187764 0.52450341 -22.46996347 0.47600345 -20.75805664 0.42724609 C-18.29314967 0.35708609 -15.82821863 0.28783213 -13.36328125 0.21875 C-12.60163162 0.19687622 -11.83998199 0.17500244 -11.05525208 0.15246582 C-7.36898349 0.05001579 -3.6877504 -0.02549871 0 0 Z " fill="#2882DE" transform="translate(337,258)"/>
<path d="M0 0 C0.33 0 0.66 0 1 0 C1.33 5.28 1.66 10.56 2 16 C2.99 16 3.98 16 5 16 C5.33 16.66 5.66 17.32 6 18 C12.08787705 20.02929235 18.09267705 19.42351711 24 17 C25.85776765 20.13498292 26.20140476 22.37471432 26 26 C21.32499855 28.74957184 17.40469082 29.51669012 12.0625 29.4375 C11.35319336 29.42992676 10.64388672 29.42235352 9.91308594 29.41455078 C4.35150157 29.23842109 1.19616083 28.62395708 -3 25 C-7.14253112 20.31239899 -7.7321679 16.02622231 -8 10 C-7.030625 9.690625 -6.06125 9.38125 -5.0625 9.0625 C-2.15934208 8.30476658 -2.15934208 8.30476658 -1 7 C-0.63239269 4.67182036 -0.29758419 2.3381615 0 0 Z " fill="#238BDE" transform="translate(249,266)"/>
<path d="M0 0 C0.66 0.66 1.32 1.32 2 2 C1.67 2.66 1.34 3.32 1 4 C1.66 4 2.32 4 3 4 C2.38722388 6.96175123 1.74627478 8.38058783 0 11 C-0.53215066 17.67443198 -0.22444717 24.41859645 1 31 C1.66 31 2.32 31 3 31 C5 34 5 34 5 37 C5.66 37 6.32 37 7 37 C6.67 37.99 6.34 38.98 6 40 C-0.625 40.125 -0.625 40.125 -4 39 C-5.3515625 36.63671875 -5.3515625 36.63671875 -6.625 33.6875 C-7.05039062 32.72199219 -7.47578125 31.75648438 -7.9140625 30.76171875 C-9.76737836 26.04842984 -10.1134598 22.34597979 -10.0625 17.25 C-10.05347656 16.07953125 -10.04445313 14.9090625 -10.03515625 13.703125 C-10.02355469 12.81109375 -10.01195312 11.9190625 -10 11 C-9.34 11 -8.68 11 -8 11 C-8 10.01 -8 9.02 -8 8 C-7.0206121 6.97980427 -6.02104551 5.97850195 -5 5 C-5 4.34 -5 3.68 -5 3 C-3.35 2.67 -1.7 2.34 0 2 C0 1.34 0 0.68 0 0 Z " fill="#455AE2" transform="translate(432,243)"/>
<path d="M0 0 C2.31 0.66 4.62 1.32 7 2 C7 2.66 7 3.32 7 4 C7.680625 4.103125 8.36125 4.20625 9.0625 4.3125 C14.87018168 5.67174465 18.52643299 6.73315159 21.8125 11.8125 C25.07128303 17.38468532 26.25652029 22.43050559 26.125 28.875 C26.10695313 30.02742188 26.08890625 31.17984375 26.0703125 32.3671875 C26.04710937 33.23601562 26.02390625 34.10484375 26 35 C24.68 34.34 23.36 33.68 22 33 C22.33 32.34 22.66 31.68 23 31 C23.039992 29.00039988 23.04346799 26.99952758 23 25 C22.34 25 21.68 25 21 25 C20.67 26.65 20.34 28.3 20 30 C19.34 30 18.68 30 18 30 C18 30.66 18 31.32 18 32 C17.01 32.495 17.01 32.495 16 33 C15.34227572 36.02934491 15.34227572 36.02934491 15 39 C14.34 39 13.68 39 13 39 C13.09539062 38.07058594 13.19078125 37.14117187 13.2890625 36.18359375 C14.42248813 25.07885391 14.42248813 25.07885391 10.0625 15.1875 C8.00468457 12.84072452 8.00468457 12.84072452 5 11 C5.33 9.35 5.66 7.7 6 6 C5.01 5.67 4.02 5.34 3 5 C3 4.34 3 3.68 3 3 C2.01 3 1.02 3 0 3 C0 2.01 0 1.02 0 0 Z " fill="#268BD7" transform="translate(338,207)"/>
<path d="M0 0 C1.10290458 3.49535912 1.0045438 6.60550112 0.875 10.25 C0.83267188 17.80980208 2.04207685 23.88360572 7.37890625 29.6796875 C14.62863356 35.58428468 23.07833999 35.50341655 32 35 C32 35.66 32 36.32 32 37 C26.555 37.495 26.555 37.495 21 38 C21 38.66 21 39.32 21 40 C22.65 40 24.3 40 26 40 C26.33 40.66 26.66 41.32 27 42 C28.89533342 42.46523063 28.89533342 42.46523063 31.0625 42.625 C32.361875 42.74875 33.66125 42.8725 35 43 C34.67 42.01 34.34 41.02 34 40 C34.78375 40.04125 35.5675 40.0825 36.375 40.125 C39.16116119 40.28728734 39.16116119 40.28728734 41 38 C41.33 38.99 41.66 39.98 42 41 C32.85805376 46.41744962 22.18919029 46.4634484 11.9296875 44.375 C5.4793862 42.11031741 0.7870082 37.76388255 -4 33 C-1.04335481 31.5216774 1.74229737 31.93967217 5 32 C5.33 31.34 5.66 30.68 6 30 C5.34 30 4.68 30 4 30 C3.34 28.02 2.68 26.04 2 24 C1.34 24 0.68 24 0 24 C-2.4983888 17.2855801 -3.84268099 8.3444748 -0.984375 1.60546875 C-0.65953125 1.07566406 -0.3346875 0.54585937 0 0 Z " fill="#5A44D7" transform="translate(433,250)"/>
<path d="M0 0 C1 1 1 1 1.09765625 3.06640625 C1.08605469 3.89011719 1.07445312 4.71382812 1.0625 5.5625 C1.05347656 6.38878906 1.04445313 7.21507812 1.03515625 8.06640625 C1.02355469 8.70449219 1.01195312 9.34257812 1 10 C-6.37192666 11.54960907 -13.60687744 12.35020481 -21.12890625 12.75390625 C-23.94174973 12.81704375 -23.94174973 12.81704375 -26 14 C-26 13.34 -26 12.68 -26 12 C-26.66 12 -27.32 12 -28 12 C-28.33 10.68 -28.66 9.36 -29 8 C-29.99 8.495 -29.99 8.495 -31 9 C-31.65555119 11.52733235 -31.65555119 11.52733235 -32 14 C-32.66 14 -33.32 14 -34 14 C-34 9.71 -34 5.42 -34 1 C-31.03 1 -28.06 1 -25 1 C-24.67 3.97 -24.34 6.94 -24 10 C-23.5153125 9.52949219 -23.030625 9.05898437 -22.53125 8.57421875 C-15.46534432 2.01107944 -9.6846768 -0.67962644 0 0 Z " fill="#3974D0" transform="translate(414,226)"/>
<path d="M0 0 C0.85883789 0.00064453 1.71767578 0.00128906 2.60253906 0.00195312 C3.48071289 0.00130859 4.35888672 0.00066406 5.26367188 0 C15.53279612 0.07957757 25.7123731 1.08899346 35.91503906 2.18945312 C34.91503906 5.18945312 34.91503906 5.18945312 32.91503906 6.18945312 C32.91503906 6.84945312 32.91503906 7.50945312 32.91503906 8.18945312 C19.71503906 8.18945312 6.51503906 8.18945312 -7.08496094 8.18945312 C-7.08496094 0.06380235 -7.08496094 0.06380235 0 0 Z " fill="#05C3CB" transform="translate(18.0849609375,204.810546875)"/>
<path d="M0 0 C0.99 0.33 1.98 0.66 3 1 C3.33 2.65 3.66 4.3 4 6 C4.99 6 5.98 6 7 6 C7.144375 7.134375 7.28875 8.26875 7.4375 9.4375 C7.61171478 12.80777201 7.61171478 12.80777201 9 14 C9.12635423 16.08043713 9.17581705 18.16576212 9.1875 20.25 C9.20167969 21.38953125 9.21585938 22.5290625 9.23046875 23.703125 C9.00592304 26.91527045 8.37296905 29.11296626 7 32 C6.34 32 5.68 32 5 32 C4.67 33.98 4.34 35.96 4 38 C0.94736336 38.98120464 -0.94736336 38.98120464 -4 38 C-2.375 32.25 -2.375 32.25 1 30 C1 29.34 1 28.68 1 28 C0.01 27.67 -0.98 27.34 -2 27 C-1.34 26.34 -0.68 25.68 0 25 C0.14517744 22.0906442 0.18630796 19.280054 0.125 16.375 C0.11597656 15.57320312 0.10695313 14.77140625 0.09765625 13.9453125 C0.07406223 11.96341477 0.03819065 9.98167019 0 8 C-0.66 8 -1.32 8 -2 8 C-2.6875 5.6875 -2.6875 5.6875 -3 3 C-1.5625 1.1875 -1.5625 1.1875 0 0 Z " fill="#02C3CB" transform="translate(70,216)"/>
<path d="M0 0 C0.93423645 3.01031744 1.04449911 3.86650268 0 7 C-0.66 7 -1.32 7 -2 7 C-2.01417969 7.58007812 -2.02835937 8.16015625 -2.04296875 8.7578125 C-2.41663389 14.87784147 -3.60520588 17.70984384 -8 22 C-11.03525486 24.02350324 -12.19426202 24.32124018 -15.6875 24.625 C-16.49574219 24.69976562 -17.30398438 24.77453125 -18.13671875 24.8515625 C-19.05904297 24.92503906 -19.05904297 24.92503906 -20 25 C-20 25.66 -20 26.32 -20 27 C-21.258125 27.04125 -22.51625 27.0825 -23.8125 27.125 C-24.52019531 27.14820313 -25.22789062 27.17140625 -25.95703125 27.1953125 C-28 27 -28 27 -31 25 C-33.62531524 24.83286431 -33.62531524 24.83286431 -36 25 C-35.34 23.68 -34.68 22.36 -34 21 C-30.37 21 -26.74 21 -23 21 C-22.34 19.68 -21.68 18.36 -21 17 C-18.23656594 15.85858158 -15.62103054 15.11749226 -12.6875 14.5625 C-12.130625 14.376875 -11.57375 14.19125 -11 14 C-10.67 13.01 -10.34 12.02 -10 11 C-9.67 10.67 -9.34 10.34 -9 10 C-9 9.34 -9 8.68 -9 8 C-8.01 8 -7.02 8 -6 8 C-6 7.01 -6 6.02 -6 5 C-4.36368108 3.95107762 -2.69514137 2.95093297 -1 2 C-0.67 1.34 -0.34 0.68 0 0 Z " fill="#5C3DE7" transform="translate(488,266)"/>
<path d="M0 0 C0.495 0.99 0.495 0.99 1 2 C0 4 0 4 -2.3125 5.1875 C-5.27796585 6.08403619 -6.11393791 5.77465507 -9 5 C-11.90959378 4.91621494 -14.79421241 4.88382105 -17.703125 4.90234375 C-18.54091492 4.9037587 -19.37870483 4.90517365 -20.24188232 4.90663147 C-22.91129157 4.91221803 -25.5806162 4.92476806 -28.25 4.9375 C-30.06249879 4.94251674 -31.87499889 4.94707934 -33.6875 4.95117188 C-38.12505864 4.96133112 -42.56243486 4.98090914 -47 5 C-46.67 15.89 -46.34 26.78 -46 38 C-43.69 38.33 -41.38 38.66 -39 39 C-39 30.42 -39 21.84 -39 13 C-38.34 13.33 -37.68 13.66 -37 14 C-36.97113463 18.31248609 -36.95324745 22.62494762 -36.9375 26.9375 C-36.92912109 28.16919922 -36.92074219 29.40089844 -36.91210938 30.66992188 C-36.90888672 31.83974609 -36.90566406 33.00957031 -36.90234375 34.21484375 C-36.89710693 35.29886475 -36.89187012 36.38288574 -36.88647461 37.49975586 C-37 40 -37 40 -38 41 C-39.66429051 41.09823937 -41.33281931 41.12973631 -43 41.125 C-44.36125 41.12886719 -44.36125 41.12886719 -45.75 41.1328125 C-48 41 -48 41 -49 40 C-49.10095564 37.34543807 -49.13970998 34.71744824 -49.1328125 32.0625 C-49.13376923 31.267229 -49.13472595 30.47195801 -49.13571167 29.65258789 C-49.13639343 27.9679354 -49.13453943 26.28328029 -49.13037109 24.59863281 C-49.12502275 22.01100803 -49.13031619 19.42355684 -49.13671875 16.8359375 C-49.13605797 15.20312461 -49.1347768 13.57031184 -49.1328125 11.9375 C-49.13483673 11.15834229 -49.13686096 10.37918457 -49.13894653 9.57641602 C-49.11495105 4.11495105 -49.11495105 4.11495105 -48 3 C-45.22261364 2.86422431 -42.46669944 2.78929843 -39.6875 2.75390625 C-37.95442274 2.72093065 -36.22134994 2.68771971 -34.48828125 2.65429688 C-31.75443022 2.60714466 -29.02059219 2.5627983 -26.28662109 2.52319336 C-23.64920627 2.48308698 -21.01218939 2.43159945 -18.375 2.37890625 C-17.57151123 2.3704921 -16.76802246 2.36207794 -15.94018555 2.35340881 C-10.42048888 2.23517151 -5.34235769 1.38248624 0 0 Z " fill="#20B7C0" transform="translate(58,254)"/>
<path d="M0 0 C1.64510941 0.00015915 3.29022379 0.00585551 4.93530273 0.01586914 C6.23164894 0.01799156 6.23164894 0.01799156 7.55418396 0.02015686 C10.32578941 0.025773 13.09731528 0.0383282 15.86889648 0.05102539 C17.74324428 0.05603831 19.61759334 0.06060158 21.49194336 0.06469727 C26.09679192 0.07574767 30.70158069 0.09302309 35.30639648 0.11352539 C35.30639648 0.77352539 35.30639648 1.43352539 35.30639648 2.11352539 C23.42639648 2.11352539 11.54639648 2.11352539 -0.69360352 2.11352539 C-1.02360352 11.68352539 -1.35360352 21.25352539 -1.69360352 31.11352539 C-0.37360352 31.77352539 0.94639648 32.43352539 2.30639648 33.11352539 C2.63639648 34.10352539 2.96639648 35.09352539 3.30639648 36.11352539 C3.96639648 36.11352539 4.62639648 36.11352539 5.30639648 36.11352539 C5.30115967 35.53908691 5.29592285 34.96464844 5.29052734 34.37280273 C5.26961072 31.74472162 5.2566899 29.1166581 5.24389648 26.48852539 C5.23551758 25.58489258 5.22713867 24.68125977 5.21850586 23.75024414 C5.20147753 19.08448251 5.33810225 14.70339254 6.30639648 10.11352539 C6.63639648 10.11352539 6.96639648 10.11352539 7.30639648 10.11352539 C7.33525987 14.59267867 7.35314836 19.0718083 7.36889648 23.55102539 C7.37727539 24.83041992 7.3856543 26.10981445 7.39428711 27.42797852 C7.39750977 28.64291992 7.40073242 29.85786133 7.40405273 31.10961914 C7.40928955 32.23553467 7.41452637 33.3614502 7.41992188 34.52148438 C7.30639648 37.11352539 7.30639648 37.11352539 6.30639648 38.11352539 C4.62030683 38.1855805 2.93138989 38.19738607 1.24389648 38.17602539 C0.32479492 38.16700195 -0.59430664 38.15797852 -1.54125977 38.14868164 C-2.2515332 38.13708008 -2.96180664 38.12547852 -3.69360352 38.11352539 C-3.86083377 32.86264695 -4.02143166 27.61162445 -4.17578125 22.36035156 C-4.22927753 20.57253507 -4.28461256 18.78477264 -4.34179688 16.99707031 C-4.42349587 14.43314273 -4.49866297 11.86909586 -4.57250977 9.30493164 C-4.59954483 8.50076309 -4.6265799 7.69659454 -4.6544342 6.86805725 C-4.70645978 4.95054117 -4.70547793 3.03171036 -4.69360352 1.11352539 C-3.69360352 0.11352539 -3.69360352 0.11352539 0 0 Z " fill="#4081C1" transform="translate(296.693603515625,256.886474609375)"/>
<path d="M0 0 C2.97 0 5.94 0 9 0 C9 0.66 9 1.32 9 2 C17.25 2 25.5 2 34 2 C34 2.66 34 3.32 34 4 C34.99 4.66 35.98 5.32 37 6 C37 6.66 37 7.32 37 8 C31.89136104 8.0246501 26.78275641 8.04283607 21.67407227 8.05493164 C19.93480832 8.05997204 18.19554864 8.0668043 16.45629883 8.07543945 C13.96174063 8.08751792 11.46723827 8.09323108 8.97265625 8.09765625 C8.19036148 8.10281754 7.40806671 8.10797882 6.60206604 8.11329651 C4.73432886 8.11349226 2.86670796 8.06199694 1 8 C0 7 0 7 -0.0625 3.4375 C-0.041875 2.303125 -0.02125 1.16875 0 0 Z " fill="#11A8D2" transform="translate(295,205)"/>
<path d="M0 0 C0.99 0 1.98 0 3 0 C3.350625 1.051875 3.70125 2.10375 4.0625 3.1875 C5.95485851 7.70711352 8.91367148 9.45568224 13 12 C10.53721199 14.46278801 8.29323018 14.99771255 5 16 C5 17.65 5 19.3 5 21 C3.68 21 2.36 21 1 21 C0.67 21.66 0.34 22.32 0 23 C-0.33 22.01 -0.66 21.02 -1 20 C-1.66 19.67 -2.32 19.34 -3 19 C-3.2475 18.38125 -3.495 17.7625 -3.75 17.125 C-5.52059982 14.1149803 -7.86620246 13.36252067 -11 12 C-10 10 -10 10 -7.125 8.625 C-2.90394516 6.43005148 -1.48472718 4.45418155 0 0 Z " fill="#FADD5B" transform="translate(464,207)"/>
<path d="M0 0 C2.31 0.33 4.62 0.66 7 1 C7.103125 1.639375 7.20625 2.27875 7.3125 2.9375 C7.539375 3.618125 7.76625 4.29875 8 5 C8.99 5.33 9.98 5.66 11 6 C13.77765016 21.62428214 13.77765016 21.62428214 10 28 C8.125 27.875 8.125 27.875 6 27 C3.13512049 20.51632532 2.87989452 13.96611778 3 7 C2.34 7 1.68 7 1 7 C0.67 4.69 0.34 2.38 0 0 Z " fill="#04C1CB" transform="translate(146,240)"/>
<path d="M0 0 C0.99 0 1.98 0 3 0 C3 0.66 3 1.32 3 2 C3.99 2 4.98 2 6 2 C6 2.66 6 3.32 6 4 C6.65226563 3.98839844 7.30453125 3.97679687 7.9765625 3.96484375 C20.80088356 3.83243926 20.80088356 3.83243926 24.375 7.3125 C26 10 26 10 26 14 C24.00045254 14.04254356 21.99958364 14.04080783 20 14 C19.67 13.67 19.34 13.34 19 13 C16.31137336 12.60006314 13.63647783 12.24865457 10.9375 11.9375 C10.17888672 11.84662109 9.42027344 11.75574219 8.63867188 11.66210938 C6.7595699 11.4375626 4.87983905 11.21829022 3 11 C1 5.25 1 5.25 1 3 C0.34 3 -0.32 3 -1 3 C-0.67 2.01 -0.34 1.02 0 0 Z " fill="#0DAFD2" transform="translate(178,251)"/>
<path d="M0 0 C0.639375 0.495 1.27875 0.99 1.9375 1.5 C7.15443003 4.05523104 12.06051654 3.54441641 17.5625 2 C18.366875 1.67 19.17125 1.34 20 1 C21.85776765 4.13498292 22.20140476 6.37471432 22 10 C17.03879788 12.95643963 13.34830327 13.44066628 7.75 13.3125 C7.03070313 13.31572266 6.31140625 13.31894531 5.5703125 13.32226562 C0.26765019 13.26765019 0.26765019 13.26765019 -2 11 C-0.35 11 1.3 11 3 11 C3 8.69 3 6.38 3 4 C2.01 4 1.02 4 0 4 C0 2.68 0 1.36 0 0 Z " fill="#2F85D6" transform="translate(253,282)"/>
<path d="M0 0 C8.67308642 0.85116584 15.67678316 2.67678316 22 9 C22.04063832 10.66617115 22.042721 12.33388095 22 14 C20.72125 13.896875 19.4425 13.79375 18.125 13.6875 C17.40570313 13.62949219 16.68640625 13.57148438 15.9453125 13.51171875 C14 13 14 13 12 10 C9.44492265 9.78718554 9.44492265 9.78718554 6.4375 10.0625 C-2.09934844 10.30176145 -9.82191299 8.19388203 -18 6 C-10.90038373 3.78864411 -2.88444146 5.70518618 4 8 C3.48967606 4.22360282 2.79233071 2.55277419 0 0 Z " fill="#16A9CE" transform="translate(200,257)"/>
<path d="M0 0 C11.07364752 -0.44229066 21.45410227 -0.16254157 31 6 C30.44271087 9.34373475 29.64826111 12.03312999 28 15 C25.32435574 14.46487115 23.19924755 13.63739512 20.6875 12.5 C17.04572467 11.01859987 13.89408199 10.39735531 10 10 C10 9.67 10 9.34 10 9 C12.97 8.34 15.94 7.68 19 7 C19 5.68 19 4.36 19 3 C17.02 3.66 15.04 4.32 13 5 C12.67 3.68 12.34 2.36 12 1 C8.04 1 4.08 1 0 1 C0 0.67 0 0.34 0 0 Z " fill="#08BCCC" transform="translate(190,226)"/>
<path d="M0 0 C0.33 0 0.66 0 1 0 C2.60546153 13.03712132 2.60546153 13.03712132 -1 19 C-1.53490481 21.67452404 -1.76516703 24.27593757 -2 27 C-1.38125 26.79375 -0.7625 26.5875 -0.125 26.375 C0.57625 26.25125 1.2775 26.1275 2 26 C2.66 26.66 3.32 27.32 4 28 C0.04 31.465 0.04 31.465 -4 35 C-4.495 33.515 -4.495 33.515 -5 32 C-6.485 32.495 -6.485 32.495 -8 33 C-9.485 33.495 -9.485 33.495 -11 34 C-11.33 33.34 -11.66 32.68 -12 32 C-14.32156597 31.59270772 -16.6568787 31.25561323 -19 31 C-18.4225 30.71640625 -17.845 30.4328125 -17.25 30.140625 C-9.11261765 26.01542423 -4.06166497 21.94261309 -1 13 C-0.71878758 10.73703593 -0.51295111 8.46369338 -0.375 6.1875 C-0.30023438 5.02605469 -0.22546875 3.86460937 -0.1484375 2.66796875 C-0.09945312 1.78753906 -0.05046875 0.90710938 0 0 Z " fill="#1DB1C4" transform="translate(149,255)"/>
<path d="M0 0 C0 3.33333333 0 6.66666667 0 10 C0.185625 10.66 0.37125 11.32 0.5625 12 C1 14 1 14 0 17 C-0.66 17 -1.32 17 -2 17 C-2.33 17.99 -2.66 18.98 -3 20 C-4.95597184 21.39712274 -6.95436401 22.73779907 -9 24 C-9.99 23.34 -10.98 22.68 -12 22 C-11.505 21.525625 -11.01 21.05125 -10.5 20.5625 C-8.29546331 16.79641649 -8.75391887 13.26540621 -9 9 C-8.01 8.67 -7.02 8.34 -6 8 C-6 7.34 -6 6.68 -6 6 C-5.34 5.67 -4.68 5.34 -4 5 C-3.835 4.34 -3.67 3.68 -3.5 3 C-3.335 2.34 -3.17 1.68 -3 1 C-1 0 -1 0 0 0 Z M-11 15 C-9 16 -9 16 -9 16 Z " fill="#2B80DC" transform="translate(362,231)"/>
<path d="M0 0 C1.65322266 0.01740234 1.65322266 0.01740234 3.33984375 0.03515625 C4.99693359 0.04869141 4.99693359 0.04869141 6.6875 0.0625 C7.54214844 0.07410156 8.39679688 0.08570313 9.27734375 0.09765625 C9.27734375 0.75765625 9.27734375 1.41765625 9.27734375 2.09765625 C9.93734375 2.42765625 10.59734375 2.75765625 11.27734375 3.09765625 C10.171875 5.57421875 10.171875 5.57421875 8.27734375 8.09765625 C5.3515625 8.62109375 5.3515625 8.62109375 1.96484375 8.47265625 C0.85496094 8.43914062 -0.25492188 8.405625 -1.3984375 8.37109375 C-4.55381167 8.11154476 -7.61058484 7.67204765 -10.72265625 7.09765625 C-10.72265625 5.11765625 -10.72265625 3.13765625 -10.72265625 1.09765625 C-9.58828125 1.11828125 -8.45390625 1.13890625 -7.28515625 1.16015625 C-3.45439343 1.09294988 -3.51866157 0.12620737 0 0 Z " fill="#03C2CC" transform="translate(121.72265625,226.90234375)"/>
<path d="M0 0 C0.66 0.33 1.32 0.66 2 1 C1.01 2.98 0.02 4.96 -1 7 C-2.32 6.67 -3.64 6.34 -5 6 C-4.67 8.31 -4.34 10.62 -4 13 C-4.66 13 -5.32 13 -6 13 C-6.33 13.66 -6.66 14.32 -7 15 C-7.66 14.67 -8.32 14.34 -9 14 C-8.67 14.99 -8.34 15.98 -8 17 C-8.639375 17.268125 -9.27875 17.53625 -9.9375 17.8125 C-12.33131686 18.88667752 -12.33131686 18.88667752 -13 22 C-12.6822243 14.69115896 -9.41550636 8.45405609 -4.26953125 3.25 C-2.89737243 2.10273182 -1.45543326 1.03959519 0 0 Z M13 3 C12 6 12 6 9.125 7.625 C6 9 6 9 3 10 C2.28272222 11.64551962 1.61674772 13.31422289 1 15 C0.34 15.66 -0.32 16.32 -1 17 C-1 16.34 -1 15.68 -1 15 C-1.66 15 -2.32 15 -3 15 C-3.33 13.35 -3.66 11.7 -4 10 C-2.33333333 10 -0.66666667 10 1 10 C1.66 8.68 2.32 7.36 3 6 C3.99 6.33 4.98 6.66 6 7 C6 6.01 6 5.02 6 4 C8.46278801 2.768606 10.2795055 2.92840804 13 3 Z " fill="#4566D0" transform="translate(436,232)"/>
<path d="M0 0 C3 1 3 1 6 3 C7.16796875 5.4609375 7.16796875 5.4609375 8.1875 8.375 C8.53167969 9.33148438 8.87585938 10.28796875 9.23046875 11.2734375 C10 14 10 14 10 18 C8.02 18.66 6.04 19.32 4 20 C2 18 2 18 1.875 15.375 C1.91625 14.59125 1.9575 13.8075 2 13 C1.01 12.67 0.02 12.34 -1 12 C-1.02687279 10.18757948 -1.04633715 8.37504767 -1.0625 6.5625 C-1.07410156 5.55316406 -1.08570313 4.54382813 -1.09765625 3.50390625 C-1 1 -1 1 0 0 Z " fill="#4E50E7" transform="translate(479,238)"/>
<path d="M0 0 C0.33 0.66 0.66 1.32 1 2 C0.67 2.99 0.34 3.98 0 5 C-0.03954234 7.33299825 -0.04401732 9.66708189 0 12 C1.98 11.67 3.96 11.34 6 11 C6.33 9.02 6.66 7.04 7 5 C7.66 5 8.32 5 9 5 C9.07476562 5.61488281 9.14953125 6.22976562 9.2265625 6.86328125 C9.63512769 9.37475548 10.08892513 11.62108228 11 14 C13.95234447 16.14665717 13.95234447 16.14665717 17 17 C17 17.33 17 17.66 17 18 C15.35 18 13.7 18 12 18 C12 17.34 12 16.68 12 16 C11.01 16 10.02 16 9 16 C9 15.34 9 14.68 9 14 C5.88214887 14.64644661 5.88214887 14.64644661 5 17 C5.66 17 6.32 17 7 17 C7.66666667 19.66666667 8.33333333 22.33333333 9 25 C3.96627156 23.56179187 2.01044111 21.09754485 -1 17 C-1.9702889 14.08913331 -2.16467847 12.09776315 -2.1875 9.0625 C-2.20167969 8.20785156 -2.21585938 7.35320312 -2.23046875 6.47265625 C-1.98703556 3.86090697 -1.3178268 2.24499348 0 0 Z " fill="#15BCC7" transform="translate(172,237)"/>
<path d="M0 0 C1.10290458 3.49535912 1.0045438 6.60550112 0.875 10.25 C0.82629365 18.94895486 2.88468968 24.73553577 9 31 C11.14980497 32.37254588 11.14980497 32.37254588 13 33 C12 36 12 36 10 37 C9.34 36.34 8.68 35.68 8 35 C6.68 35 5.36 35 4 35 C4.99 36.98 5.98 38.96 7 41 C1.61103792 39.57351004 -0.6475415 36.21006416 -4 32 C-1.03 32 1.94 32 5 32 C5.33 31.34 5.66 30.68 6 30 C5.34 30 4.68 30 4 30 C3.34 28.02 2.68 26.04 2 24 C1.34 24 0.68 24 0 24 C-2.4983888 17.2855801 -3.84268099 8.3444748 -0.984375 1.60546875 C-0.65953125 1.07566406 -0.3346875 0.54585937 0 0 Z " fill="#5352D0" transform="translate(433,250)"/>
<path d="M0 0 C2.97 0 5.94 0 9 0 C9.33 2.97 9.66 5.94 10 9 C13.63 9 17.26 9 21 9 C21 9.66 21 10.32 21 11 C20.22914063 11.06058594 19.45828125 11.12117187 18.6640625 11.18359375 C17.66117187 11.26738281 16.65828125 11.35117188 15.625 11.4375 C14.12839844 11.55931641 14.12839844 11.55931641 12.6015625 11.68359375 C10.02072387 11.84965626 10.02072387 11.84965626 8 13 C8 12.34 8 11.68 8 11 C7.34 11 6.68 11 6 11 C5.67 9.68 5.34 8.36 5 7 C4.01 7.495 4.01 7.495 3 8 C2.34444881 10.52733235 2.34444881 10.52733235 2 13 C1.34 13 0.68 13 0 13 C0 8.71 0 4.42 0 0 Z " fill="#2C7DDC" transform="translate(380,227)"/>
<path d="M0 0 C2.31 0.66 4.62 1.32 7 2 C7 2.66 7 3.32 7 4 C7.721875 4.12375 8.44375 4.2475 9.1875 4.375 C11.95721894 4.9904931 14.3970354 5.88444374 17 7 C17.33 9.31 17.66 11.62 18 14 C16.35 14.33 14.7 14.66 13 15 C13 14.34 13 13.68 13 13 C12.13375 12.8453125 12.13375 12.8453125 11.25 12.6875 C8.58978053 11.87465516 7.00309159 10.93155261 5 9 C5 7.68 5 6.36 5 5 C4.34 5 3.68 5 3 5 C3 4.34 3 3.68 3 3 C2.01 3 1.02 3 0 3 C0 2.01 0 1.02 0 0 Z " fill="#1B96D8" transform="translate(338,207)"/>
<path d="M0 0 C0.33 0 0.66 0 1 0 C1 1.65 1 3.3 1 5 C1.928125 4.938125 2.85625 4.87625 3.8125 4.8125 C7 5 7 5 8.875 6.125 C10.4682099 8.78034983 10.20214032 10.96789518 10 14 C9.01 14 8.02 14 7 14 C7 14.99 7 15.98 7 17 C4.525 16.01 4.525 16.01 2 15 C1.855625 13.906875 1.71125 12.81375 1.5625 11.6875 C1.11711896 8.06877013 1.11711896 8.06877013 0 5 C-0.928125 4.87625 -1.85625 4.7525 -2.8125 4.625 C-6 4 -6 4 -9 2 C-6.94921875 1.77213542 -4.8984375 1.54427083 -2.84765625 1.31640625 C-0.98859771 1.18113386 -0.98859771 1.18113386 0 0 Z " fill="#1A9FD3" transform="translate(213,265)"/>
<path d="M0 0 C0.433125 0.598125 0.86625 1.19625 1.3125 1.8125 C3.32555647 4.42201765 5.03519645 6.51759822 8 8 C8 8.66 8 9.32 8 10 C6.34151823 11.01351664 4.67334039 12.01120795 3 13 C1.63015802 14.29579647 0.2848951 15.61992749 -1 17 C-1.226875 16.236875 -1.45375 15.47375 -1.6875 14.6875 C-3.26731682 11.45263699 -4.83282717 10.58358642 -8 9 C-6.48890738 7.48890738 -4.97917634 5.98000928 -3.4375 4.5 C-1.77629047 2.85424985 -1.77629047 2.85424985 0 0 Z " fill="#F9DF65" transform="translate(475,184)"/>
<path d="M0 0 C0.33 0 0.66 0 1 0 C1.33 11.55 1.66 23.1 2 35 C4.64 35 7.28 35 10 35 C10 26.42 10 17.84 10 9 C10.66 9.33 11.32 9.66 12 10 C12.02886537 14.31248609 12.04675255 18.62494762 12.0625 22.9375 C12.07087891 24.16919922 12.07925781 25.40089844 12.08789062 26.66992188 C12.09111328 27.83974609 12.09433594 29.00957031 12.09765625 30.21484375 C12.10289307 31.29886475 12.10812988 32.38288574 12.11352539 33.49975586 C12 36 12 36 11 37 C9.33570949 37.09823937 7.66718069 37.12973631 6 37.125 C4.63875 37.12886719 4.63875 37.12886719 3.25 37.1328125 C1 37 1 37 0 36 C-0.08855161 33.3337397 -0.11524673 30.69352886 -0.09765625 28.02734375 C-0.0962413 27.22970108 -0.09482635 26.43205841 -0.09336853 25.61024475 C-0.08775316 23.05262565 -0.07519812 20.49509282 -0.0625 17.9375 C-0.05748698 16.20768355 -0.05292373 14.47786574 -0.04882812 12.74804688 C-0.03777875 8.49866447 -0.02050386 4.24934688 0 0 Z " fill="#33ADB9" transform="translate(9,258)"/>
<path d="M0 0 C1.85625 0.1546875 1.85625 0.1546875 3.75 0.3125 C7.83801993 0.75365323 10.01136797 2.10476272 13 5 C12.29875 4.855625 11.5975 4.71125 10.875 4.5625 C7.92381611 3.98509446 4.96777626 3.4845349 2 3 C0.948125 2.814375 -0.10375 2.62875 -1.1875 2.4375 C-4.01967084 1.9231465 -4.01967084 1.9231465 -7 2 C-7.94875 1.814375 -8.8975 1.62875 -9.875 1.4375 C-12.97128919 1.00401951 -14.99090937 1.33131319 -18 2 C-18.66 1.67 -19.32 1.34 -20 1 C-20 1.66 -20 2.32 -20 3 C-22.31 3.33 -24.62 3.66 -27 4 C-22.31141362 -1.27834567 -14.79574316 -2.40719773 -8.015625 -3.01171875 C-4.90134544 -2.99361247 -2.23147553 -2.23147553 0 0 Z " fill="#4F6DC6" transform="translate(465,228)"/>
<path d="M0 0 C0.99 0 1.98 0 3 0 C3 0.66 3 1.32 3 2 C3.99 2 4.98 2 6 2 C6 2.66 6 3.32 6 4 C7.65 4 9.3 4 11 4 C11.5625 5.9375 11.5625 5.9375 12 8 C11.67 8.33 11.34 8.66 11 9 C11.33 9.99 11.66 10.98 12 12 C9.03 11.67 6.06 11.34 3 11 C1 5.25 1 5.25 1 3 C0.34 3 -0.32 3 -1 3 C-0.67 2.01 -0.34 1.02 0 0 Z " fill="#09B7D0" transform="translate(178,251)"/>
<path d="M0 0 C0.33 0 0.66 0 1 0 C1.33 5.28 1.66 10.56 2 16 C2.66 16 3.32 16 4 16 C3.67 16.99 3.34 17.98 3 19 C2.21625 18.979375 1.4325 18.95875 0.625 18.9375 C-1.98114961 18.81315937 -1.98114961 18.81315937 -4 20 C-4 19.34 -4 18.68 -4 18 C-4.66 18 -5.32 18 -6 18 C-6.44071354 12.62329486 -6.44071354 12.62329486 -6 10 C-4.36368108 8.95107762 -2.69514137 7.95093297 -1 7 C-0.10407917 3.40080577 -0.10407917 3.40080577 0 0 Z " fill="#2191D7" transform="translate(249,266)"/>
<path d="M0 0 C0 2.64 0 5.28 0 8 C-2.97 8 -5.94 8 -9 8 C-8.67 7.01 -8.34 6.02 -8 5 C-8.66 4.67 -9.32 4.34 -10 4 C-10.33 4.99 -10.66 5.98 -11 7 C-13 4 -13 4 -13 1 C-8.23947038 -0.97387813 -5.03511899 -1.0070238 0 0 Z " fill="#3275DD" transform="translate(413,227)"/>
<path d="M0 0 C0.99 0.495 0.99 0.495 2 1 C2 6.61 2 12.22 2 18 C3.32 18 4.64 18 6 18 C6 17.34 6 16.68 6 16 C6.66 16 7.32 16 8 16 C8 11.38 8 6.76 8 2 C8.33 2 8.66 2 9 2 C9 8.27 9 14.54 9 21 C6.03 21 3.06 21 0 21 C0 14.07 0 7.14 0 0 Z " fill="#4157E2" transform="translate(380,272)"/>
<path d="M0 0 C0.33 0 0.66 0 1 0 C1 8.91 1 17.82 1 27 C-2.3 27 -5.6 27 -9 27 C-9 25.02 -9 23.04 -9 21 C-7.35 21.33 -5.7 21.66 -4 22 C-3.67 23.32 -3.34 24.64 -3 26 C-2.34 26 -1.68 26 -1 26 C-1.00523682 25.42556152 -1.01047363 24.85112305 -1.01586914 24.25927734 C-1.03678576 21.63119623 -1.04970659 19.00313271 -1.0625 16.375 C-1.07087891 15.47136719 -1.07925781 14.56773437 -1.08789062 13.63671875 C-1.10491895 8.97095711 -0.96829423 4.58986715 0 0 Z " fill="#3B79C8" transform="translate(303,267)"/>
<path d="M0 0 C1.58246707 -0.08153933 3.16616273 -0.13943557 4.75 -0.1875 C6.07257813 -0.23970703 6.07257813 -0.23970703 7.421875 -0.29296875 C10.48475196 0.05508545 11.76522683 0.92125829 14 3 C14.33 3.66 14.66 4.32 15 5 C15.66 5 16.32 5 17 5 C17 5.66 17 6.32 17 7 C14.79112053 8.34110539 13.54530581 9.06609767 10.9375 8.75 C9 8 9 8 6 6 C6 5.34 6 4.68 6 4 C4.35 4 2.7 4 1 4 C0.67 2.68 0.34 1.36 0 0 Z " fill="#03C0CB" transform="translate(100,282)"/>
<path d="M0 0 C1.875 0.125 1.875 0.125 4 1 C5.91502155 5.0124261 6.25190641 7.74351821 5 12 C3.0085944 12.38133299 1.00720923 12.71325582 -1 13 C-2 12 -2 12 -2.1875 8.75 C-2.01338941 5.26778825 -1.50198876 3.09785183 0 0 Z " fill="#04C1CD" transform="translate(173,237)"/>
<path d="M0 0 C5.60520852 4.94509099 6.60219665 11.2871687 7.375 18.5 C6.43515713 27.27186676 4.208224 34.53237945 -2 41 C-2.99 41.495 -2.99 41.495 -4 42 C-4 40.35 -4 38.7 -4 37 C-3.01 37 -2.02 37 -1 37 C-0.34 35.02 0.32 33.04 1 31 C1.66 31 2.32 31 3 31 C3.93983832 27.03179378 4.13421572 23.32334639 4.125 19.25 C4.12757812 18.10015625 4.13015625 16.9503125 4.1328125 15.765625 C4.31500164 13.0908767 4.31500164 13.0908767 3 12 C2.855625 10.9275 2.71125 9.855 2.5625 8.75 C2.07165009 5.47766726 1.35790278 2.98738612 0 0 Z " fill="#26B3B6" transform="translate(74,217)"/>
<path d="M0 0 C0.66 0.33 1.32 0.66 2 1 C5.80110514 12.40331542 4.31597471 22.87679506 -0.6875 33.625 C-1.120625 34.40875 -1.55375 35.1925 -2 36 C-2.495 34.515 -2.495 34.515 -3 33 C-3.66 32.67 -4.32 32.34 -5 32 C-4.34 32 -3.68 32 -3 32 C-3 31.34 -3 30.68 -3 30 C-3.66 29.67 -4.32 29.34 -5 29 C-4.195625 28.67 -3.39125 28.34 -2.5625 28 C0.34956947 26.1592816 0.34956947 26.1592816 0.8125 22.5 C0.90906858 21.0018075 0.96795981 19.50095959 1 18 C1.04060547 16.65228516 1.04060547 16.65228516 1.08203125 15.27734375 C1.16080284 10.07125752 0.91116918 5.12532663 0 0 Z " fill="#1EAEC5" transform="translate(156,246)"/>
<path d="M0 0 C4.82890552 3.51193128 8.306434 7.12507794 10 13 C9.59765625 15.24609375 9.59765625 15.24609375 9 17 C8.71125 16.401875 8.4225 15.80375 8.125 15.1875 C6.95257974 12.80672208 6.95257974 12.80672208 5 10 C5 8.68 5 7.36 5 6 C4.38125 5.9175 3.7625 5.835 3.125 5.75 C1 5 1 5 -0.25 2.9375 C-0.62125 1.9784375 -0.62125 1.9784375 -1 1 C-0.67 0.67 -0.34 0.34 0 0 Z M-4 2 C-3.01 2.66 -2.02 3.32 -1 4 C-0.70703125 6.3828125 -0.70703125 6.3828125 -0.8125 9.125 C-0.83957031 10.03507813 -0.86664063 10.94515625 -0.89453125 11.8828125 C-0.92933594 12.58148438 -0.96414063 13.28015625 -1 14 C-3.38672669 11.03716687 -5.7353371 8.05729491 -8 5 C-7.01 5 -6.02 5 -5 5 C-4.67 4.01 -4.34 3.02 -4 2 Z " fill="#4C58DA" transform="translate(480,235)"/>
<path d="M0 0 C0.639375 0.495 1.27875 0.99 1.9375 1.5 C7.15443003 4.05523104 12.06051654 3.54441641 17.5625 2 C18.366875 1.67 19.17125 1.34 20 1 C21.85776765 4.13498292 22.20140476 6.37471432 22 10 C20.02 10.66 18.04 11.32 16 12 C16 10 16 8 16 6 C14.64455078 5.90912109 14.64455078 5.90912109 13.26171875 5.81640625 C11.49248047 5.69072266 11.49248047 5.69072266 9.6875 5.5625 C8.51574219 5.48128906 7.34398437 5.40007812 6.13671875 5.31640625 C3 5 3 5 0 4 C0 2.68 0 1.36 0 0 Z " fill="#3783C9" transform="translate(253,282)"/>
<path d="M0 0 C11.07364752 -0.44229066 21.45410227 -0.16254157 31 6 C30.44271087 9.34373475 29.64826111 12.03312999 28 15 C27.01 14.67 26.02 14.34 25 14 C26.32 11.36 27.64 8.72 29 6 C26.66836622 5.32741333 24.3347961 4.66152556 22 4 C21.29875 3.7525 20.5975 3.505 19.875 3.25 C17.19288172 2.89238423 15.40149256 3.86596185 13 5 C12.67 3.68 12.34 2.36 12 1 C8.04 1 4.08 1 0 1 C0 0.67 0 0.34 0 0 Z " fill="#2FB1BE" transform="translate(190,226)"/>
<path d="M0 0 C4.64064472 -0.09997246 9.28064272 -0.17197966 13.92211914 -0.21972656 C15.49612365 -0.23966084 17.07005589 -0.26681871 18.64379883 -0.30175781 C30.82501902 -0.56513555 40.94617585 0.39170064 51 8 C46.82412255 9.39195915 44.86525224 7.82323219 41 6 C41 5.34 41 4.68 41 4 C32.54228389 1.65434254 24.14582835 1.55956773 15.4375 1.375 C13.93682824 1.33674154 12.4361766 1.29768549 10.93554688 1.2578125 C7.29055056 1.16267804 3.64540046 1.07834092 0 1 C0 0.67 0 0.34 0 0 Z " fill="#3C9ABE" transform="translate(304,205)"/>
<path d="M0 0 C3.45816686 -0.08847317 6.91603579 -0.14087725 10.375 -0.1875 C11.34050781 -0.21263672 12.30601563 -0.23777344 13.30078125 -0.26367188 C21.70303719 -0.34825834 29.95368538 0.62807115 36.625 6.1875 C37.27726562 6.71730469 37.92953125 7.24710938 38.6015625 7.79296875 C39.06304687 8.19128906 39.52453125 8.58960938 40 9 C36.3786355 9 35.40417346 8.03768052 32.375 6.125 C22.53525704 0.94875805 10.89037122 1.45734506 0 1 C0 0.67 0 0.34 0 0 Z " fill="#2CB8BF" transform="translate(32,205)"/>
<path d="M0 0 C0.66 0 1.32 0 2 0 C2 0.66 2 1.32 2 2 C2.515625 1.773125 3.03125 1.54625 3.5625 1.3125 C7.28807032 0.83486278 9.64516304 2.38709761 13 4 C9.99801155 7.00198845 8.04194047 7.95992537 3.75 8.125 C2.8425 8.08375 1.935 8.0425 1 8 C1.33 7.01 1.66 6.02 2 5 C1.34 5 0.68 5 0 5 C0 3.35 0 1.7 0 0 Z " fill="#FADC62" transform="translate(464,215)"/>
<path d="M0 0 C3.68754757 0.49831724 5.60490662 1.10067643 8 4 C6.02 4 4.04 4 2 4 C2 4.66 2 5.32 2 6 C2.66 6.66 3.32 7.32 4 8 C4 8.66 4 9.32 4 10 C4.66 10.33 5.32 10.66 6 11 C6 11.66 6 12.32 6 13 C2.59687262 11.94124926 -0.01353231 10.99097846 -3 9 C-2.44271087 5.65626525 -1.64826111 2.96687001 0 0 Z " fill="#29A3C1" transform="translate(171,279)"/>
<path d="M0 0 C0.66 0 1.32 0 2 0 C4 3 4 3 4 6 C4.66 6 5.32 6 6 6 C5.67 6.99 5.34 7.98 5 9 C-1.625 9.25 -1.625 9.25 -5 7 C-4.34 7 -3.68 7 -3 7 C-3.66 5.02 -4.32 3.04 -5 1 C-2.525 1.495 -2.525 1.495 0 2 C0 1.34 0 0.68 0 0 Z " fill="#4F4DE8" transform="translate(433,274)"/>
<path d="M0 0 C0.99 0.33 1.98 0.66 3 1 C2.67 3.31 2.34 5.62 2 8 C3.21623047 7.98259766 3.21623047 7.98259766 4.45703125 7.96484375 C11.70566174 7.90577458 18.79632201 8.19157121 26 9 C26 9.33 26 9.66 26 10 C21.85418113 10.02886751 17.70838784 10.04675327 13.5625 10.0625 C11.78649414 10.07506836 11.78649414 10.07506836 9.97460938 10.08789062 C8.84990234 10.09111328 7.72519531 10.09433594 6.56640625 10.09765625 C5.00321655 10.10551147 5.00321655 10.10551147 3.40844727 10.11352539 C1 10 1 10 0 9 C-0.07179964 7.48071962 -0.08392007 5.95832518 -0.0625 4.4375 C-0.05347656 3.61121094 -0.04445313 2.78492188 -0.03515625 1.93359375 C-0.02355469 1.29550781 -0.01195312 0.65742188 0 0 Z " fill="#1BD8DB" transform="translate(9,205)"/>
<path d="M0 0 C0.042721 1.66611905 0.04063832 3.33382885 0 5 C-1 6 -1 6 -3.9375 6.1875 C-7 6 -7 6 -9 4 C-9 3.01 -9 2.02 -9 1 C-9.99 0.67 -10.98 0.34 -12 0 C-8.20640675 -1.89679663 -3.95604392 -1.21724428 0 0 Z " fill="#5746EA" transform="translate(447,285)"/>
<path d="M0 0 C0.66 0 1.32 0 2 0 C2.33 2.31 2.66 4.62 3 7 C19.335 7.495 19.335 7.495 36 8 C36 8.33 36 8.66 36 9 C24.12 9 12.24 9 0 9 C-1.15941038 5.52176885 -0.70820884 3.54104422 0 0 Z " fill="#34A7C4" transform="translate(293,205)"/>
<path d="M0 0 C0.66 0 1.32 0 2 0 C2 2.64 2 5.28 2 8 C3.98 7.67 5.96 7.34 8 7 C8.91058531 10.07322544 9.08886184 12.80097361 9 16 C5.79405398 15.77100386 4.96845479 14.96394833 2.8125 12.5 C0.62300575 8.2720111 0.20879749 4.69794346 0 0 Z " fill="#318AC6" transform="translate(241,276)"/>
<path d="M0 0 C0.99 0 1.98 0 3 0 C3.09765625 6.15234375 3.09765625 6.15234375 3 8 C2 9 2 9 0.05053711 9.11352539 C-0.7821167 9.10828857 -1.61477051 9.10305176 -2.47265625 9.09765625 C-3.37177734 9.09443359 -4.27089844 9.09121094 -5.19726562 9.08789062 C-6.14279297 9.07951172 -7.08832031 9.07113281 -8.0625 9.0625 C-9.01189453 9.05798828 -9.96128906 9.05347656 -10.93945312 9.04882812 C-13.29303065 9.0370011 -15.64648477 9.02052025 -18 9 C-18 8.67 -18 8.34 -18 8 C-16.86820313 7.95101562 -15.73640625 7.90203125 -14.5703125 7.8515625 C-13.08851661 7.77653486 -11.606747 7.70098703 -10.125 7.625 C-9.37863281 7.5940625 -8.63226563 7.563125 -7.86328125 7.53125 C-3.46526812 7.44356169 -3.46526812 7.44356169 0 5 C-0.33 4.01 -0.66 3.02 -1 2 C-0.67 1.34 -0.34 0.68 0 0 Z " fill="#2AA5C7" transform="translate(269,227)"/>
<path d="M0 0 C1.65 0 3.3 0 5 0 C5 0.66 5 1.32 5 2 C5.8971875 2.433125 5.8971875 2.433125 6.8125 2.875 C9 4 9 4 12 6 C14.04869074 6.44429438 16.11454293 6.81294195 18.1875 7.125 C19.81751953 7.37636719 19.81751953 7.37636719 21.48046875 7.6328125 C22.72763672 7.81457031 22.72763672 7.81457031 24 8 C24 8.33 24 8.66 24 9 C16.35782189 9.49304375 9.44736189 8.51999719 3.2578125 3.62109375 C1.875 2.25 1.875 2.25 0 0 Z " fill="#2AB7C3" transform="translate(101,286)"/>
<path d="M0 0 C1.65 0.33 3.3 0.66 5 1 C4.67 2.32 4.34 3.64 4 5 C3.34 5 2.68 5 2 5 C0.37485532 6.45833358 0.37485532 6.45833358 -1 8 C-2.32 7.34 -3.64 6.68 -5 6 C-5 5.34 -5 4.68 -5 4 C-3.35 3.34 -1.7 2.68 0 2 C0 1.34 0 0.68 0 0 Z " fill="#485AE0" transform="translate(475,233)"/>
<path d="M0 0 C2.38370909 2.38370909 2.29588602 2.9936599 2.3125 6.25 C2.17667829 11.23545574 1.17073927 14.91211338 -2.53515625 18.4765625 C-3.98231958 19.70134848 -5.48733479 20.8570974 -7 22 C-7 20.68 -7 19.36 -7 18 C-6.360625 17.79375 -5.72125 17.5875 -5.0625 17.375 C-2.65074923 16.10461791 -2.65074923 16.10461791 -2.25 12.875 C-2.1675 11.92625 -2.085 10.9775 -2 10 C-1.01 10 -0.02 10 1 10 C0.67 6.7 0.34 3.4 0 0 Z " fill="#3496C0" transform="translate(222,269)"/>
<path d="M0 0 C0.33 0 0.66 0 1 0 C1.43070896 9.53541781 1.77001424 18.34782088 -3 27 C-3.66 27.33 -4.32 27.66 -5 28 C-4.67 25.36 -4.34 22.72 -4 20 C-3.34 20 -2.68 20 -2 20 C-1.34 13.4 -0.68 6.8 0 0 Z " fill="#5D4BC0" transform="translate(490,253)"/>
<path d="M0 0 C0.66 0 1.32 0 2 0 C1.67 1.32 1.34 2.64 1 4 C1.99 4.33 2.98 4.66 4 5 C-1.71735105 7.45029331 -5.79029227 8.33266291 -12 8 C-11.67 7.34 -11.34 6.68 -11 6 C-9.700625 5.87625 -8.40125 5.7525 -7.0625 5.625 C-4.91410565 5.46232767 -4.91410565 5.46232767 -3 5 C-1.47154805 3.11399607 -1.47154805 3.11399607 -1 1 C-0.67 0.67 -0.34 0.34 0 0 Z " fill="#2E95CA" transform="translate(210,287)"/>
<path d="M0 0 C3.28515921 3.28515921 3.93552774 6.86786706 4.1953125 11.4296875 C4.16050781 13.13511719 4.16050781 13.13511719 4.125 14.875 C4.10695313 16.02742188 4.08890625 17.17984375 4.0703125 18.3671875 C4.03550781 19.67042969 4.03550781 19.67042969 4 21 C2.68 20.34 1.36 19.68 0 19 C0.33 18.34 0.66 17.68 1 17 C1.31787855 11.27818607 1.21424892 5.61590124 0 0 Z " fill="#3985CA" transform="translate(360,221)"/>
<path d="M0 0 C4.95 0.99 4.95 0.99 10 2 C10 3.65 10 5.3 10 7 C8.68 7 7.36 7 6 7 C5.67 7.66 5.34 8.32 5 9 C4.67 8.01 4.34 7.02 4 6 C3.34 5.67 2.68 5.34 2 5 C1.27840576 3.35636866 0.60648579 1.68949614 0 0 Z " fill="#F4DA73" transform="translate(459,221)"/>
<path d="M0 0 C2.31 0.33 4.62 0.66 7 1 C6.01 1.495 6.01 1.495 5 2 C5 2.66 5 3.32 5 4 C6.32 4.33 7.64 4.66 9 5 C8.01 5.33 7.02 5.66 6 6 C6 6.66 6 7.32 6 8 C6.66 8.33 7.32 8.66 8 9 C6.35 8.67 4.7 8.34 3 8 C2.67 7.01 2.34 6.02 2 5 C1.34 4.34 0.68 3.68 0 3 C0 2.01 0 1.02 0 0 Z " fill="#11A8D7" transform="translate(172,282)"/>
<path d="M0 0 C1.32 0.33 2.64 0.66 4 1 C5.13480527 4.60993172 5.10015767 7.9842327 5.0625 11.75 C5.05347656 12.92046875 5.04445313 14.0909375 5.03515625 15.296875 C5.02355469 16.18890625 5.01195313 17.0809375 5 18 C4.34 18.33 3.68 18.66 3 19 C2.92652344 17.69675781 2.92652344 17.69675781 2.8515625 16.3671875 C2.77679688 15.21476563 2.70203125 14.06234375 2.625 12.875 C2.55539063 11.73804688 2.48578125 10.60109375 2.4140625 9.4296875 C2.00556124 6.04606384 1.19032431 3.18387559 0 0 Z " fill="#26BAC0" transform="translate(66,223)"/>
<path d="M0 0 C3.3 0.33 6.6 0.66 10 1 C6.92000054 4.67230705 4.7517398 5.56802365 0 6 C-0.66 5.01 -1.32 4.02 -2 3 C-1.34 2.67 -0.68 2.34 0 2 C0 1.34 0 0.68 0 0 Z " fill="#17B0C5" transform="translate(189,255)"/>
<path d="M0 0 C15.92938497 0.59453303 15.92938497 0.59453303 22 4 C22 4.33 22 4.66 22 5 C14.47407567 4.3622098 7.32901118 2.80110167 0 1 C0 0.67 0 0.34 0 0 Z " fill="#30A8BF" transform="translate(182,262)"/>
<path d="M0 0 C3.63 1.98 7.26 3.96 11 6 C10 8 10 8 7.625 9.125 C5 10 5 10 2 10 C2 9.34 2 8.68 2 8 C2.66 8 3.32 8 4 8 C4 6.68 4 5.36 4 4 C2.68 3.34 1.36 2.68 0 2 C0 1.34 0 0.68 0 0 Z " fill="#F5DE7B" transform="translate(448,193)"/>
<path d="M0 0 C0.99 0.495 0.99 0.495 2 1 C4.12784853 7.3835456 4.22124638 13.31344281 4 20 C3.34 20.33 2.68 20.66 2 21 C0.97839204 17.93517613 0.92852429 15.94853798 1 12.75 C1.04659514 8.36423283 0.76671383 4.3127653 0 0 Z " fill="#22BCCA" transform="translate(156,246)"/>
<path d="M0 0 C0.33 0.99 0.66 1.98 1 3 C1.99 2.67 2.98 2.34 4 2 C4.33 2.99 4.66 3.98 5 5 C5.66 5.33 6.32 5.66 7 6 C6.34 7.65 5.68 9.3 5 11 C3 9 3 9 2 6 C-0.49759982 4.30117552 -0.49759982 4.30117552 -3 3 C-2.01 2.01 -1.02 1.02 0 0 Z " fill="#F5DD78" transform="translate(470,190)"/>
<path d="M0 0 C0.38800781 0.49113281 0.77601563 0.98226562 1.17578125 1.48828125 C3.61211696 3.50725753 5.06930672 3.30898805 8.1875 3.1875 C9.08855469 3.16042969 9.98960937 3.13335937 10.91796875 3.10546875 C11.60503906 3.07066406 12.29210937 3.03585938 13 3 C13 3.66 13 4.32 13 5 C12.22914063 5.06058594 11.45828125 5.12117187 10.6640625 5.18359375 C9.66117187 5.26738281 8.65828125 5.35117188 7.625 5.4375 C6.12839844 5.55931641 6.12839844 5.55931641 4.6015625 5.68359375 C2.02072387 5.84965626 2.02072387 5.84965626 0 7 C0 6.34 0 5.68 0 5 C-0.66 5 -1.32 5 -2 5 C-1.125 1.125 -1.125 1.125 0 0 Z " fill="#337BE6" transform="translate(388,233)"/>
<path d="M0 0 C-3.19588005 3.70722086 -6.38710598 5.40645479 -11 7 C-11.99 6.67 -12.98 6.34 -14 6 C-12.35 5.67 -10.7 5.34 -9 5 C-8.8453125 4.0409375 -8.8453125 4.0409375 -8.6875 3.0625 C-8.460625 2.381875 -8.23375 1.70125 -8 1 C-5.07175348 0.02391783 -3.04386724 -0.08226668 0 0 Z " fill="#3E75CA" transform="translate(354,258)"/>
<path d="M0 0 C2.97 0 5.94 0 9 0 C9 1.98 9 3.96 9 6 C8.01 6.33 7.02 6.66 6 7 C6 5.68 6 4.36 6 3 C6.66 3 7.32 3 8 3 C8 2.34 8 1.68 8 1 C5.69 1 3.38 1 1 1 C1 4.96 1 8.92 1 13 C0.67 13 0.34 13 0 13 C0 8.71 0 4.42 0 0 Z " fill="#367ED1" transform="translate(380,227)"/>
<path d="M0 0 C0.66 0 1.32 0 2 0 C2.07476562 0.61488281 2.14953125 1.22976562 2.2265625 1.86328125 C2.63512769 4.37475548 3.08892513 6.62108228 4 9 C6.95234447 11.14665717 6.95234447 11.14665717 10 12 C10 12.33 10 12.66 10 13 C8.35 13 6.7 13 5 13 C5 12.34 5 11.68 5 11 C4.01 11 3.02 11 2 11 C-0.67927341 6.98108988 -0.15601248 4.75838077 0 0 Z " fill="#26B3BD" transform="translate(179,242)"/>
<path d="M0 0 C0.99 0.33 1.98 0.66 3 1 C3.33 1.99 3.66 2.98 4 4 C3.0925 4.598125 2.185 5.19625 1.25 5.8125 C-1.22901481 7.48106766 -3.63317911 9.17936855 -6 11 C-6.66 10.67 -7.32 10.34 -8 10 C-7.236875 9.278125 -6.47375 8.55625 -5.6875 7.8125 C-3.28866409 5.30209033 -1.64589779 3.03191698 0 0 Z " fill="#1DBDC7" transform="translate(68,243)"/>
<path d="M0 0 C2.64116845 2.64116845 3.00103701 4.01265147 3.3125 7.8125 C3.17048026 11.79652751 2.25701255 15.22896236 1 19 C0.34 19 -0.32 19 -1 19 C-0.9278125 18.04738281 -0.855625 17.09476563 -0.78125 16.11328125 C-0.6884375 14.85902344 -0.595625 13.60476562 -0.5 12.3125 C-0.4071875 11.07113281 -0.314375 9.82976562 -0.21875 8.55078125 C-0.04220063 5.68500671 0.04388528 2.86900043 0 0 Z " fill="#3C84C3" transform="translate(352,227)"/>
<path d="M0 0 C0.66 0.99 1.32 1.98 2 3 C-7.22551253 7.59225513 -7.22551253 7.59225513 -13 7 C-11 5 -11 5 -7.875 4.875 C-6.92625 4.91625 -5.9775 4.9575 -5 5 C-5.33 4.01 -5.66 3.02 -6 2 C-4.35 2 -2.7 2 -1 2 C-0.67 1.34 -0.34 0.68 0 0 Z " fill="#583ECA" transform="translate(473,288)"/>
<path d="M0 0 C0.66 0 1.32 0 2 0 C4.15802177 3.23703265 4.38391021 5.22645005 5 9 C5.97348627 11.28480253 5.97348627 11.28480253 7 13 C6.34 13 5.68 13 5 13 C5 12.34 5 11.68 5 11 C3.68 11.33 2.36 11.66 1 12 C1.01740234 11.07767578 1.01740234 11.07767578 1.03515625 10.13671875 C1.04417969 9.32847656 1.05320313 8.52023437 1.0625 7.6875 C1.07410156 6.88699219 1.08570313 6.08648437 1.09765625 5.26171875 C1.09657855 2.83138666 1.09657855 2.83138666 0 0 Z " fill="#2D97C5" transform="translate(211,270)"/>
<path d="M0 0 C1.67542976 0.28604898 3.34385343 0.61781233 5 1 C5 2.65 5 4.3 5 6 C3.824375 5.9690625 3.824375 5.9690625 2.625 5.9375 C0.01885039 5.81315937 0.01885039 5.81315937 -2 7 C-1.125 1.125 -1.125 1.125 0 0 Z " fill="#0CB4D2" transform="translate(148,276)"/>
<path d="M0 0 C0.66 0 1.32 0 2 0 C1.67 5.28 1.34 10.56 1 16 C-0.83356588 12.33286823 -1.2585055 11.25243203 -1.1875 7.4375 C-1.18105469 6.67308594 -1.17460938 5.90867187 -1.16796875 5.12109375 C-1 3 -1 3 0 0 Z " fill="#22B7BF" transform="translate(91,253)"/>
<path d="M0 0 C2.24940295 -0.08119503 4.49964871 -0.13927819 6.75 -0.1875 C8.00296875 -0.22230469 9.2559375 -0.25710937 10.546875 -0.29296875 C14.14109357 0.01197061 15.44725126 0.54394629 18 3 C16.35 3.66 14.7 4.32 13 5 C12.67 3.68 12.34 2.36 12 1 C8.04 1 4.08 1 0 1 C0 0.67 0 0.34 0 0 Z " fill="#1CB9C1" transform="translate(190,226)"/>
<path d="M0 0 C2.86724686 0.57344937 3.8614515 0.8614515 6 3 C5.01 3 4.02 3 3 3 C3 4.32 3 5.64 3 7 C1.68 7 0.36 7 -1 7 C-0.67 4.69 -0.34 2.38 0 0 Z " fill="#1F96D9" transform="translate(212,284)"/>
<path d="M0 0 C0.12375 0.639375 0.2475 1.27875 0.375 1.9375 C0.58125 2.618125 0.7875 3.29875 1 4 C1.66 4.33 2.32 4.66 3 5 C2.01 5.33 1.02 5.66 0 6 C-0.680625 6.7115625 -0.680625 6.7115625 -1.375 7.4375 C-3.38576214 9.37092514 -5.39052205 10.0831564 -8 11 C-7.38511719 10.31164062 -7.38511719 10.31164062 -6.7578125 9.609375 C-6.21898437 8.99578125 -5.68015625 8.3821875 -5.125 7.75 C-4.59132813 7.14671875 -4.05765625 6.5434375 -3.5078125 5.921875 C-2.0202513 4.02581254 -0.99677564 2.18709995 0 0 Z " fill="#5945CC" transform="translate(478,272)"/>
<path d="M0 0 C5.02692063 0.45699278 8.14896261 2.99241748 12 6 C8.58900832 6 5.36911686 5.50854594 2 5 C1.34 3.35 0.68 1.7 0 0 Z " fill="#22B7BC" transform="translate(138,229)"/>
<path d="M0 0 C0.66 0 1.32 0 2 0 C2.28875 0.804375 2.5775 1.60875 2.875 2.4375 C3.73262568 5.1326468 3.73262568 5.1326468 6 6 C5.67 6.66 5.34 7.32 5 8 C1.34683329 6.75023244 0.21934164 6.32901247 -2 3 C-1.34 2.01 -0.68 1.02 0 0 Z " fill="#04C3CE" transform="translate(138,232)"/>
<path d="M0 0 C1.051875 0.639375 2.10375 1.27875 3.1875 1.9375 C6.10828412 3.61754452 8.6171743 4.58996052 12 5 C12 5.66 12 6.32 12 7 C9.06552319 7.34934248 6.85632498 7.51495218 4.265625 5.95703125 C2.625 4.625 2.625 4.625 0 2 C0 1.34 0 0.68 0 0 Z " fill="#23B6C1" transform="translate(109,280)"/>
<path d="M0 0 C3.48141758 3.48141758 6.21362363 8.08514772 7 13 C4 12 4 12 2.83203125 10.0390625 C2.49558594 9.24242187 2.15914063 8.44578125 1.8125 7.625 C1.46832031 6.83351563 1.12414062 6.04203125 0.76953125 5.2265625 C0 3 0 3 0 0 Z " fill="#4B52CA" transform="translate(423,268)"/>
<path d="M0 0 C2.12438339 -0.08078641 4.2496323 -0.13909141 6.375 -0.1875 C7.55835938 -0.22230469 8.74171875 -0.25710938 9.9609375 -0.29296875 C11.46527344 -0.14794922 11.46527344 -0.14794922 13 0 C13.66 0.99 14.32 1.98 15 3 C9.47322267 3.19392201 5.24385089 2.7479503 0 1 C0 0.67 0 0.34 0 0 Z " fill="#3997C1" transform="translate(178,292)"/>
<path d="M0 0 C2.64 0.33 5.28 0.66 8 1 C8 1.66 8 2.32 8 3 C5.75 4.1875 5.75 4.1875 3 5 C0.6875 3.625 0.6875 3.625 -1 2 C-0.67 1.34 -0.34 0.68 0 0 Z " fill="#18BACE" transform="translate(121,285)"/>
<path d="M0 0 C0.66 0 1.32 0 2 0 C1.55520961 5.04095775 -0.66154153 7.41115715 -4 11 C-4.33 11 -4.66 11 -5 11 C-5 9.35 -5 7.7 -5 6 C-4.01 6 -3.02 6 -2 6 C-1.34 4.02 -0.68 2.04 0 0 Z " fill="#20B9C0" transform="translate(75,248)"/>
<path d="M0 0 C0.33 0.99 0.66 1.98 1 3 C-0.21484375 4.82421875 -0.21484375 4.82421875 -1.9375 6.6875 C-2.50339844 7.31011719 -3.06929688 7.93273437 -3.65234375 8.57421875 C-4.09707031 9.04472656 -4.54179687 9.51523437 -5 10 C-5.33 8.68 -5.66 7.36 -6 6 C-5.195625 5.38125 -4.39125 4.7625 -3.5625 4.125 C-0.96125481 2.25835959 -0.96125481 2.25835959 0 0 Z " fill="#3D77C3" transform="translate(360,248)"/>
<path d="M0 0 C2.98093122 2.5550839 4.52359755 5.38281401 6 9 C5.6875 11.375 5.6875 11.375 5 13 C0 3.38461538 0 3.38461538 0 0 Z " fill="#5655C6" transform="translate(484,239)"/>
<path d="M0 0 C0 0.66 0 1.32 0 2 C1.32 2.66 2.64 3.32 4 4 C3.01 4.495 3.01 4.495 2 5 C-0.5 4 -0.5 4 -3 3 C-5.32597511 2.6186926 -7.65912158 2.27539746 -10 2 C-10 1.67 -10 1.34 -10 1 C-3.375 0 -3.375 0 0 0 Z " fill="#26B4C5" transform="translate(210,234)"/>
<path d="M0 0 C1.98 0 3.96 0 6 0 C3.33333333 2.66666667 0.66666667 5.33333333 -2 8 C-1.47731534 5.23723823 -0.89130413 2.6739124 0 0 Z " fill="#3B6BCE" transform="translate(395,238)"/>
<path d="M0 0 C5.71241466 0.38728235 8.73688282 0.87010523 13 5 C11.9790625 4.7834375 11.9790625 4.7834375 10.9375 4.5625 C7.63726918 3.93054091 4.32855574 3.45686059 1 3 C0.67 2.01 0.34 1.02 0 0 Z " fill="#5464B7" transform="translate(465,228)"/>
<path d="M0 0 C0.66 0 1.32 0 2 0 C2 2.97 2 5.94 2 9 C1.01 8.34 0.02 7.68 -1 7 C-1.25 3.9375 -1.25 3.9375 -1 1 C-0.67 0.67 -0.34 0.34 0 0 Z " fill="#5846ED" transform="translate(487,256)"/>
<path d="M0 0 C0.763125 0.309375 1.52625 0.61875 2.3125 0.9375 C4.18789677 1.67893593 6.08684652 2.36228217 8 3 C8.33 5.31 8.66 7.62 9 10 C8.443125 9.278125 7.88625 8.55625 7.3125 7.8125 C5.02090666 5.02542701 2.58540143 2.51358472 0 0 Z " fill="#378EC0" transform="translate(343,217)"/>
<path d="M0 0 C2.475 0.495 2.475 0.495 5 1 C5.33 2.32 5.66 3.64 6 5 C4.35 5 2.7 5 1 5 C0.67 3.35 0.34 1.7 0 0 Z " fill="#3177E2" transform="translate(294,288)"/>
<path d="M0 0 C0.99 0.33 1.98 0.66 3 1 C3.75 2.9375 3.75 2.9375 4 5 C3.67 5.66 3.34 6.32 3 7 C2.01 7 1.02 7 0 7 C0 4.69 0 2.38 0 0 Z " fill="#1C94E0" transform="translate(243,276)"/>
<path d="M0 0 C0.99 0 1.98 0 3 0 C3 0.66 3 1.32 3 2 C4.65 1.67 6.3 1.34 8 1 C7.67 1.99 7.34 2.98 7 4 C4.69 3.67 2.38 3.34 0 3 C0 2.01 0 1.02 0 0 Z " fill="#F6DD74" transform="translate(454,217)"/>
<path d="M0 0 C1.98 0 3.96 0 6 0 C6 0.99 6 1.98 6 3 C5.01 3.66 4.02 4.32 3 5 C1.5 3.625 1.5 3.625 0 2 C0 1.34 0 0.68 0 0 Z " fill="#FBDE49" transform="translate(474,192)"/>
<path d="M0 0 C0.66 0.33 1.32 0.66 2 1 C1.01 3.97 0.02 6.94 -1 10 C-1.33 10 -1.66 10 -2 10 C-2.6875 6.6875 -2.6875 6.6875 -3 3 C-1.5625 1.0625 -1.5625 1.0625 0 0 Z " fill="#4271D0" transform="translate(391,246)"/>
<path d="M0 0 C4.75 1.875 4.75 1.875 7 3 C7 4.98 7 6.96 7 9 C4.61327331 6.03716687 2.2646629 3.05729491 0 0 Z " fill="#4D55C6" transform="translate(472,240)"/>
<path d="M0 0 C0.99 0 1.98 0 3 0 C3 0.99 3 1.98 3 3 C2.34 3 1.68 3 1 3 C1 3.99 1 4.98 1 6 C-0.65 6.66 -2.3 7.32 -4 8 C-2.68 5.36 -1.36 2.72 0 0 Z " fill="#F5E08D" transform="translate(464,207)"/>
<path d="M0 0 C1.32 0.66 2.64 1.32 4 2 C3.01 2.495 3.01 2.495 2 3 C1.67 3.99 1.34 4.98 1 6 C-0.32 5.34 -1.64 4.68 -3 4 C-2.01 2.68 -1.02 1.36 0 0 Z " fill="#2C78D9" transform="translate(267,289)"/>
<path d="M0 0 C2.31 0.66 4.62 1.32 7 2 C7.33 3.32 7.66 4.64 8 6 C4.08597051 4.73058503 2.20927127 3.48832306 0 0 Z " fill="#24B3C1" transform="translate(173,256)"/>
<path d="M0 0 C5.57142857 5.14285714 5.57142857 5.14285714 6 9 C5.34 9 4.68 9 4 9 C3.67 8.01 3.34 7.02 3 6 C2.01 5.34 1.02 4.68 0 4 C0 2.68 0 1.36 0 0 Z " fill="#2DB6C1" transform="translate(150,236)"/>
<path d="M0 0 C1 4 1 4 -0.4375 6.75 C-1.2109375 7.86375 -1.2109375 7.86375 -2 9 C-2.99 8.67 -3.98 8.34 -5 8 C-3.35 5.36 -1.7 2.72 0 0 Z " fill="#34A7B4" transform="translate(220,232)"/>
<path d="M0 0 C0.33 0.66 0.66 1.32 1 2 C2.32 2 3.64 2 5 2 C4.67 2.99 4.34 3.98 4 5 C2.02 5 0.04 5 -2 5 C-1.34 3.35 -0.68 1.7 0 0 Z " fill="#16A5DC" transform="translate(189,285)"/>
<path d="M0 0 C2.31 0.33 4.62 0.66 7 1 C7.33 1.99 7.66 2.98 8 4 C6.68 4 5.36 4 4 4 C3.67 4.66 3.34 5.32 3 6 C2.67 5.01 2.34 4.02 2 3 C1.34 2.67 0.68 2.34 0 2 C0 1.34 0 0.68 0 0 Z " fill="#D1C099" transform="translate(461,224)"/>
<path d="M0 0 C1.32 0.33 2.64 0.66 4 1 C3.67 3.31 3.34 5.62 3 8 C1.0549 5.08235 0.54723683 3.37462715 0 0 Z " fill="#2B97D4" transform="translate(292,258)"/>
<path d="M0 0 C1.875 0.3125 1.875 0.3125 4 1 C4.66 1.99 5.32 2.98 6 4 C4.02 4.99 4.02 4.99 2 6 C2 4.68 2 3.36 2 2 C1.34 2 0.68 2 0 2 C0 1.34 0 0.68 0 0 Z " fill="#24A1C8" transform="translate(213,261)"/>
<path d="M0 0 C1.32 0.33 2.64 0.66 4 1 C3.67 2.65 3.34 4.3 3 6 C2.01 6 1.02 6 0 6 C0.66 5.01 1.32 4.02 2 3 C1.34 3 0.68 3 0 3 C0 2.01 0 1.02 0 0 Z " fill="#13BCC7" transform="translate(66,254)"/>
<path d="M0 0 C0.66 0.66 1.32 1.32 2 2 C0 5 0 5 -2.125 5.6875 C-2.74375 5.790625 -3.3625 5.89375 -4 6 C-4.33 5.01 -4.66 4.02 -5 3 C-3.35 2.67 -1.7 2.34 0 2 C0 1.34 0 0.68 0 0 Z " fill="#3D63E8" transform="translate(432,243)"/>
<path d="M0 0 C1.32 0.66 2.64 1.32 4 2 C1.42786866 3.61949011 0.32330841 4.04408751 -2.75 3.625 C-3.4925 3.41875 -4.235 3.2125 -5 3 C-4.360625 2.690625 -3.72125 2.38125 -3.0625 2.0625 C-1.06389179 1.1654837 -1.06389179 1.1654837 0 0 Z " fill="#0AB9D6" transform="translate(199,232)"/>
<path d="M0 0 C2.31 0 4.62 0 7 0 C7 0.66 7 1.32 7 2 C2.25 3.125 2.25 3.125 0 2 C0 1.34 0 0.68 0 0 Z " fill="#2783E4" transform="translate(381,228)"/>
</svg>
